<svg xmlns="http://www.w3.org/2000/svg" width="18" height="18" viewBox="0 0 18 18"><defs><clipPath id="a"><rect width="18" height="18" rx="0"/></clipPath></defs><g clip-path="url(#a)"><path d="M11.183 16.83l-1.245-1.245a8.798 8.798 0 0 0 .261-13.167l1.248-1.248a10.548 10.548 0 0 1-.264 15.66z"/><path d="M7.824 13.471L6.542 12.19a3.777 3.777 0 0 0 .311-6.426l1.26-1.258a5.538 5.538 0 0 1-.288 8.966zm-3.36-3.08a1.26 1.26 0 1 1 0-2.519 1.26 1.26 0 0 1 0 2.52z"/></g><circle cx="100" cy="100" r="10"><animate attributeName="r" from="10" to="40" dur="1s" repeatCount="indefinite" begin="indefinite"/></circle></svg>