<svg xmlns="http://www.w3.org/2000/svg" width="24" height="24" viewBox="0 0 24 24"><defs><clipPath id="a"><rect width="24" height="24" rx="0"/></clipPath></defs><g clip-path="url(#a)"><path d="M14.91 22.44l-1.66-1.66a11.731 11.731 0 0 0 4.126-8.937c0-3.41-1.46-6.471-3.777-8.62l1.663-1.663c2.743 2.574 4.465 6.222 4.465 10.28 0 4.229-1.87 8.013-4.817 10.6z"/><path d="M10.432 17.961l-1.71-1.709a5.037 5.037 0 0 0 .416-8.567l1.678-1.679a7.384 7.384 0 0 1-.384 11.955zm-4.48-4.105a1.68 1.68 0 1 1 0-3.36 1.68 1.68 0 0 1 0 3.36z"/></g></svg>