<svg width="44" height="44" viewBox="0 0 44 44" xmlns="http://www.w3.org/2000/svg"><title>编组 81</title><path d="M43 18.11l-.2-2.144c-.896.197-2.537.448-3.78.448-5.723 0-5.275-6.683-12.092-6.683-6.07 0-11.394 2.893-14.03 8.13-.15-.05-.349-.05-.548-.05-.896 0-1.79.697-2.388 1.496l-2.886-2.444L2 22.997l9.105 8.08 5.573-6.036-2.785-2.393c.597-.697 1.094-1.346 1.094-2.294 0-.448-.1-.897-.3-1.246 1.693-3.143 4.53-5.188 8.261-5.287-.25 3.292-.15 5.885-.3 8.03-.347 5.486-2.038 8.23-13.781 12.07v2.493c8.11-.849 14.479-3.242 17.962-9.975 4.579 1.297 7.464 6.483 7.464 12.818 0 .848-.1 1.845-.15 2.743h2.986c.446-1.996.647-3.941.647-5.786 0-5.735-2.34-10.623-7.614-13.216l1.294-7.582c1.344 1.897 3.284 4.09 5.523 4.09 1.593 0 4.58-.797 6.021-1.395v-.002zm-29.257 2.344c0 .449-.447.947-.796 1.397l-2.04-1.747c.349-.448.796-1.046 1.443-1.046l-.2.5 1.543.646c0 .1.05.15.05.25zM30.96 5.193C30.96 3.447 29.517 2 27.776 2a3.21 3.21 0 0 0-3.184 3.193c0 1.745 1.443 3.192 3.184 3.192s3.184-1.447 3.184-3.192z"/></svg>