<svg xmlns="http://www.w3.org/2000/svg" xmlns:xlink="http://www.w3.org/1999/xlink" fill="none" version="1.1" width="40" height="40" viewBox="0 0 40 40"><defs><clipPath id="master_svg0_391_20849"><rect x="8" y="8" width="24" height="24" rx="0"/></clipPath></defs><g style="mix-blend-mode:passthrough"><g style="mix-blend-mode:passthrough"><ellipse cx="20" cy="20" rx="20" ry="20" fill="#1989FA" fill-opacity="1"/></g><g clip-path="url(#master_svg0_391_20849)"><g><path d="M21.195999999999998,10.267999534378053L24.445999999999998,15.897999534378052C24.722,16.374999534378052,24.558,16.98699953437805,24.08,17.262999534378054L22.78,18.012999534378054L23.781,19.74503953437805L22.049,20.74503953437805L21.049,19.011999534378052L19.75,19.763039534378052C19.272,20.039039534378052,18.66,19.875039534378054,18.384,19.397039534378052L16.546,16.21499953437805C14.494,16.83699953437805,13,18.744999534378053,13,21.000039534378054C13,21.625039534378054,13.115,22.22403953437805,13.324,22.77603953437805C14.1,22.284039534378053,15.016,22.000039534378054,16,22.000039534378054C17.684,22.000039534378054,19.174,22.833039534378052,20.08,24.109039534378052L27.768,19.670039534378052L28.768,21.40203953437805L20.89,25.95103953437805C20.962,26.289039534378052,21,26.641039534378052,21,27.00003953437805C21,27.34303953437805,20.966,27.677039534378054,20.9,28.00003953437805L29,28.00003953437805L29,30.00003953437805L12,30.00103953437805C11.372,29.165039534378053,11,28.12603953437805,11,27.00003953437805C11,25.993039534378052,11.298,25.055039534378054,11.81,24.27003953437805C11.293,23.295039534378052,11,22.182039534378053,11,21.000039534378054C11,18.00499953437805,12.881,15.448999534378052,15.527000000000001,14.449999534378051L15.134,13.767999534378053C14.582,12.810999534378052,14.908999999999999,11.587999534378053,15.866,11.035999534378051L18.464,9.535999534378051C19.421,8.983999534378052,20.644,9.310999534378052,21.195999999999998,10.267999534378053Z" fill="#FFFFFF" fill-opacity="1"/></g></g></g></svg>