<svg xmlns="http://www.w3.org/2000/svg" xmlns:xlink="http://www.w3.org/1999/xlink" fill="none" version="1.1" width="40" height="40" viewBox="0 0 40 40"><defs><clipPath id="master_svg0_391_20711/258_07599"><rect x="8" y="8" width="24" height="24" rx="0"/></clipPath></defs><g style="mix-blend-mode:passthrough"><g style="mix-blend-mode:passthrough"><ellipse cx="20" cy="20" rx="20" ry="20" fill="#1989FA" fill-opacity="1"/></g><g clip-path="url(#master_svg0_391_20711/258_07599)"><g><path d="M17.879003214149474,19.999973571777346L15.562003214149474,17.683003571777345C13.132083214149475,18.713393571777345,10.387903214149475,17.149383571777342,10.036103514149476,14.533573571777342C9.684304214149476,11.917763571777344,11.917763214149476,9.684305571777344,14.533573214149474,10.036104471777344C17.149373214149474,10.387903571777343,18.713393214149477,13.132083571777343,17.683003214149476,15.562003571777343L19.999973214149477,17.880003571777344L26.373973214149476,11.505003571777344C27.155073214149475,10.723569571777343,28.421873214149475,10.723569571777343,29.202973214149473,11.505003571777344L29.909973214149474,12.212003571777345L17.683003214149476,24.43797357177734C18.713393214149477,26.867873571777345,17.149373214149474,29.612073571777344,14.533573214149474,29.963873571777345C11.917763214149476,30.315673571777342,9.684305214149475,28.082273571777343,10.036104714149475,25.466473571777342C10.387904214149476,22.850573571777346,13.132083214149475,21.286573571777346,15.562003214149474,22.316973571777346L17.880003214149475,19.999973571777346L17.879003214149474,19.999973571777346ZM14.000003214149476,16.000003571777345C15.104573214149475,16.000003571777345,16.000003214149476,15.104573571777344,16.000003214149476,14.000003571777345C16.000003214149476,12.895433571777344,15.104573214149475,12.000003571777343,14.000003214149476,12.000003571777343C12.895433214149476,12.000003571777343,12.000003214149475,12.895433571777344,12.000003214149475,14.000003571777345C12.000003214149475,15.104573571777344,12.895433214149476,16.000003571777345,14.000003214149476,16.000003571777345ZM14.000003214149476,27.999973571777343C15.104573214149475,27.999973571777343,16.000003214149476,27.104573571777344,16.000003214149476,25.999973571777343C16.000003214149476,24.895473571777345,15.104573214149475,23.999973571777346,14.000003214149476,23.999973571777346C12.895433214149476,23.999973571777346,12.000003214149475,24.895473571777345,12.000003214149475,25.999973571777343C12.000003214149475,27.104573571777344,12.895433214149476,27.999973571777343,14.000003214149476,27.999973571777343ZM23.534973214149474,21.412973571777343L29.909973214149474,27.788973571777344L29.202973214149473,28.495973571777345C28.421873214149475,29.277473571777342,27.155073214149475,29.277473571777342,26.373973214149476,28.495973571777345L21.413973214149475,23.534973571777343L23.533973214149476,21.412973571777343L23.534973214149474,21.412973571777343ZM23.999973214149477,19.00000357177734L25.999973214149474,19.00000357177734L25.999973214149474,20.999973571777346L23.999973214149477,20.999973571777346L23.999973214149477,19.00000357177734ZM27.999973214149474,19.00000357177734L29.999973214149474,19.00000357177734L29.999973214149474,20.999973571777346L27.999973214149474,20.999973571777346L27.999973214149474,19.00000357177734ZM14.000003214149476,19.00000357177734L16.000003214149476,19.00000357177734L16.000003214149476,20.999973571777346L14.000003214149476,20.999973571777346L14.000003214149476,19.00000357177734ZM10.000000000149475,19.00000357177734L12.000003214149475,19.00000357177734L12.000003214149475,20.999973571777346L10.000000000149475,20.999973571777346L10.000000000149475,19.00000357177734Z" fill="#FFFFFF" fill-opacity="1"/></g></g></g></svg>