<svg xmlns="http://www.w3.org/2000/svg" xmlns:xlink="http://www.w3.org/1999/xlink" fill="none" version="1.1" width="40" height="40" viewBox="0 0 40 40"><defs><clipPath id="master_svg0_391_20712/258_07603"><rect x="8" y="8" width="24" height="24" rx="0"/></clipPath></defs><g style="mix-blend-mode:passthrough"><g style="mix-blend-mode:passthrough"><ellipse cx="20" cy="20" rx="20" ry="20" fill="#1989FA" fill-opacity="1"/></g><g clip-path="url(#master_svg0_391_20712/258_07603)"><g><path d="M14.5,10L25.5,10C25.814799999999998,9.999999880791,26.1111,10.148194,26.3,10.4L29,14L29,29C29,29.5523,28.5523,30,28,30L12,30C11.447715,30,11,29.5523,11,29L11,14L13.7,10.4C13.88885,10.148194,14.18524,10,14.5,10ZM26.5,14L25,12L15,12L13.5,14L26.5,14ZM17,18L15,18L15,20C15,22.761400000000002,17.23858,25,20,25C22.761400000000002,25,25,22.761400000000002,25,20L25,18L23,18L23,20C23,21.6569,21.6569,23,20,23C18.34315,23,17,21.6569,17,20L17,18Z" fill="#FFFFFF" fill-opacity="1"/></g></g></g></svg>