<svg xmlns="http://www.w3.org/2000/svg" fill="none" width="20" height="20" viewBox="0 0 20 20"><defs><clipPath id="a"><rect width="20" height="20" rx="0"/></clipPath></defs><g clip-path="url(#a)"><ellipse cx="25" cy="25" rx="20" ry="20" fill="#FFF"/><path d="M10 18.333a8.333 8.333 0 1 1 0-16.666 8.333 8.333 0 0 1 0 16.666zM9.167 12.5v1.667h1.666V12.5H9.167zm1.666-1.37A2.918 2.918 0 0 0 10 5.416c-1.39 0-2.588.98-2.86 2.344l1.634.327A1.25 1.25 0 1 1 10 9.583a.833.833 0 0 0-.833.834v1.25h1.666v-.538z" fill="#1989FA" fill-opacity=".6"/></g></svg>