<svg xmlns="http://www.w3.org/2000/svg" fill="none" width="20" height="20" viewBox="0 0 20 20"><defs><clipPath id="a"><rect width="20" height="20" rx="0"/></clipPath></defs><g clip-path="url(#a)"><path d="M4.167 3.333a.833.833 0 0 0-.834.834v11.666c0 .46.373.834.834.834h11.666c.46 0 .834-.373.834-.834V4.167a.833.833 0 0 0-.834-.834H4.167zm-2.5.834a2.5 2.5 0 0 1 2.5-2.5h11.666a2.5 2.5 0 0 1 2.5 2.5v11.666a2.5 2.5 0 0 1-2.5 2.5H4.167a2.5 2.5 0 0 1-2.5-2.5V4.167zM6.91 6.91a.833.833 0 0 1 1.178 0L10 8.82l1.91-1.91a.833.833 0 1 1 1.18 1.178L11.177 10l1.911 1.91a.833.833 0 0 1-1.178 1.18L10 11.178l-1.91 1.91a.833.833 0 0 1-1.18-1.178L8.822 10l-1.91-1.91a.833.833 0 0 1 0-1.18z" fill-rule="evenodd" fill="#EA0000"/></g></svg>