<svg width="48" height="48" viewBox="0 0 48 48" xmlns="http://www.w3.org/2000/svg"><title>编组 22</title><g fill="none"><path d="M37.995 5H10.5A5.5 5.5 0 0 0 5 10.5v27.495a5.5 5.5 0 0 0 5.5 5.5h27.495a5.5 5.5 0 0 0 5.5-5.5V10.5a5.5 5.5 0 0 0-5.5-5.5zm2.753 33.003a2.743 2.743 0 0 1-2.741 2.745H10.506a2.74 2.74 0 0 1-1.95-.803 2.729 2.729 0 0 1-.809-1.942v-27.5a2.76 2.76 0 0 1 2.76-2.756h27.492a2.752 2.752 0 0 1 2.749 2.755v27.5zM36.284 17.37h-11a1.374 1.374 0 0 0 0 2.748h11a1.374 1.374 0 0 0 0-2.748zm0 11.005h-11a1.374 1.374 0 0 0 0 2.748h11a1.374 1.374 0 0 0 0-2.748zm-19.25-3.436a4.812 4.812 0 1 0 0 9.624 4.812 4.812 0 0 0 0-9.624zm1.46 6.273a2.064 2.064 0 1 1 .605-1.46 2.052 2.052 0 0 1-.605 1.46z" fill="#168BFF"/><path d="M20.188 15.031l-4.53 4.529-1.778-1.779a1.374 1.374 0 0 0-1.942 1.943l2.75 2.75a1.374 1.374 0 0 0 1.942 0l5.5-5.5a1.374 1.374 0 0 0-1.942-1.943z" fill="#FF5000"/></g></svg>