<svg width="48" height="48" viewBox="0 0 48 48" xmlns="http://www.w3.org/2000/svg"><title>编组 54备份</title><g fill="none" fill-rule="evenodd"><path d="M34.476 11.571L30.96 8.055c-1.407-1.407-3.751-1.407-5.158 0L5.875 28.216c-.468.469-.937 1.172-.937 2.11L4 37.359c0 .469 0 .703.234.938.235.234.704.469.938.234l7.033-.938c.703 0 1.407-.468 2.11-.937l20.161-19.927c1.407-1.407 1.407-3.751 0-5.158zm-22.27 23.913l-5.627.703.703-5.627c0-.234 0-.468.234-.468l5.158 5.157c-.234 0-.234.235-.469.235zm2.109-1.876l-5.157-5.392 13.831-13.831 5.158 5.157-13.832 14.066zm18.52-18.52l-3.047 3.048-5.158-5.158 3.048-3.048c.469-.468 1.172-.468 1.875 0l3.517 3.517c.234.234.234 1.172-.235 1.64zM23.77 39.656c-.703 0-1.172.469-1.172 1.172S23.066 42 23.77 42h16.88c.703 0 1.172-.469 1.172-1.172s-.47-1.172-1.173-1.172H23.77z" fill="#168BFF" fill-rule="nonzero"/><text font-family="Arial-Black, Arial Black" font-size="9" font-weight="700" letter-spacing="1" fill="#FA6E1E" transform="translate(4 7)"><tspan x="17.996" y="29">123</tspan></text></g></svg>