<svg width="48" height="48" viewBox="0 0 48 48" xmlns="http://www.w3.org/2000/svg"><title>编组 22</title><g fill="none"><path d="M45.443 19.71L25.009 2.373a1.572 1.572 0 0 0-2.034 0L2.54 19.71a1.572 1.572 0 0 0 2.034 2.397l.544-.46v22.78a1.572 1.572 0 0 0 3.145 0V18.98L23.992 5.634l15.73 13.347v9.74a1.572 1.572 0 0 0 3.146 0V21.65l.54.458a1.572 1.572 0 1 0 2.034-2.397zM11.406 41.27h4.127c.393 0 .59.197.59.59v3.538c0 .393-.197.59-.59.59h-3.538c-.393 0-.59-.197-.59-.59V41.86c0-.393.197-.59.59-.59h-.59zm7.076 0h4.127c.393 0 .59.197.59.59v3.538c0 .393-.197.59-.59.59h-3.538c-.393 0-.59-.197-.59-.59V41.86c0-.393.197-.59.59-.59h-.59zm-7.04-6.245h4.127c.393 0 .59.197.59.59v3.538c0 .393-.197.59-.59.59h-3.538c-.393 0-.59-.197-.59-.59v-3.538c0-.393.197-.59.59-.59h-.59zm0-6.264h4.127c.393 0 .59.197.59.59v3.538c0 .393-.197.59-.59.59h-3.538c-.393 0-.59-.197-.59-.59V29.35c0-.393.197-.59.59-.59h-.59zm7.04 6.228h4.127c.393 0 .59.197.59.59v3.538c0 .393-.197.59-.59.59h-3.538c-.393 0-.59-.197-.59-.59v-3.538c0-.393.197-.59.59-.59h-.59z" fill="#168BFF"/><path d="M38.225 32.475a2.228 2.228 0 0 0-2.75 0V36.6H28a1 1 0 0 0-1 1v2.593a1 1 0 0 0 1 1h7.365v4.18a2.228 2.228 0 0 0 2.75 0l5.775-5.143a1.677 1.677 0 0 0 0-2.557l-5.665-5.198z" fill="#FA6E1E"/></g></svg>