<svg width="48" height="48" viewBox="0 0 48 48" xmlns="http://www.w3.org/2000/svg"><title>编组 25</title><g fill="none"><path d="M34.094 32.237h6.363a2 2 0 0 1 2 2v5.229a2 2 0 0 1-2 2h-6.363a2 2 0 0 1-2-2v-5.229a2 2 0 0 1 2-2zm5.52 2.844h-4.67v3.54h4.67v-3.54zm-18.317-2.844h6.363a2 2 0 0 1 2 2v5.229a2 2 0 0 1-2 2h-6.363a2 2 0 0 1-2-2v-5.229a2 2 0 0 1 2-2zm5.52 2.844h-4.67v3.54h4.67v-3.54zM8.504 32.237h6.363a2 2 0 0 1 2 2v5.229a2 2 0 0 1-2 2H8.505a2 2 0 0 1-2-2v-5.229a2 2 0 0 1 2-2zm5.52 2.844h-4.67v3.54h4.67v-3.54zM1 26.533h2.838v2.844H1v-2.844zm5.168 0h3.026v2.844H6.168v-2.844zm5.355 0h3.027v2.844h-3.027v-2.844zm5.35 0H19.9v2.844h-3.026v-2.844zm5.35 0h3.027v2.844h-3.026v-2.844zm5.357 0h3.02v2.844h-3.026v-2.844h.006zm5.35 0h3.026v2.844H32.93v-2.844zm5.35 0h3.027v2.844H38.28v-2.844zm5.35 0h2.85v2.844h-2.85v-2.844zm0 4.84h2.85v2.596h-2.844v-2.595h-.006zm0 4.593h2.85v2.6h-2.844v-2.6h-.006zm0 4.592h2.85v2.595h-2.844v-2.595h-.006zm0 4.593h2.844v2.843H43.63v-2.843zm-37.462 0h3.026v2.843H6.168v-2.843zm5.355 0h3.027v2.843h-3.027v-2.843zm5.35 0H19.9v2.843h-3.026v-2.843zm5.35 0h3.027v2.843h-3.026v-2.843zm5.351 0h3.027v2.843h-3.027v-2.843zm5.356 0h3.026v2.843H32.93v-2.843zm5.35 0h3.027v2.843H38.28v-2.843zM1 45.15h2.844L3.838 48H1v-2.85zm0-13.777h2.844v2.595H1v-2.595zm0 4.592h2.844v2.6H1v-2.6zm0 4.598h2.844v2.595H1v-2.595z" fill="#FA6E1E"/><path d="M29.699 0a2 2 0 0 1 2 2v9.644a2 2 0 0 1-2 2H17.78a2 2 0 0 1-2-2V2a2 2 0 0 1 2-2h11.918zm-1.474 2.822h-8.961a1 1 0 0 0-1 1v6a1 1 0 0 0 1 1h8.96a1 1 0 0 0 1-1v-6a1 1 0 0 0-1-1zm-5.197 20.537l-4.727-4.727a1.43 1.43 0 0 1 0-2.014 1.43 1.43 0 0 1 2.014 0l3.425 3.425 3.425-3.425a1.43 1.43 0 0 1 2.014 0 1.43 1.43 0 0 1 0 2.014l-4.738 4.727a1 1 0 0 1-1.413 0z" fill="#168BFF"/></g></svg>