<svg xmlns="http://www.w3.org/2000/svg" fill="none" width="49" height="49" viewBox="0 0 49 49"><path d="M13.951 4.5h21.96a7.451 7.451 0 0 1 7.452 7.451v25.098a7.45 7.45 0 0 1-7.451 7.451H13.95a7.451 7.451 0 0 1-7.45-7.451V11.951A7.451 7.451 0 0 1 13.951 4.5zm0 2.353a5.098 5.098 0 0 0-5.098 5.098v25.098a5.098 5.098 0 0 0 5.098 5.098h21.96a5.098 5.098 0 0 0 5.099-5.098V11.951a5.098 5.098 0 0 0-5.098-5.098H13.95z" fill="#168BFF"/><path d="M33.167 5.676v3.138c0 1.082-.879 1.96-1.961 1.96h-12.55a1.962 1.962 0 0 1-1.96-1.96V5.676h-2.353v3.138a4.314 4.314 0 0 0 4.314 4.313h12.549a4.314 4.314 0 0 0 4.314-4.313V5.676h-2.353zM13.559 17.441h7.059q1.176 0 1.176 1.177 0 1.176-1.176 1.176h-7.06q-1.176 0-1.176-1.176 0-1.177 1.177-1.177zm0 7.059h7.059q1.176 0 1.176 1.176 0 1.177-1.176 1.177h-7.06q-1.176 0-1.176-1.177 0-1.176 1.177-1.176zm0 7.059h7.059q1.176 0 1.176 1.176 0 1.177-1.176 1.177h-7.06q-1.176 0-1.176-1.177 0-1.176 1.177-1.176z" fill="#168BFF"/><path d="M33.298 17.585h.97v2.504H36v4.979c0 .753-.33 1.139-.98 1.139h-.893l-.254-.932.837.047c.207 0 .31-.16.31-.47v-.612h-2.484v1.985h-.979V20.09h1.741v-2.504zm-.762 5.045v.781h2.485v-.78h-2.485zm2.485-.828v-.781h-2.485v.78h2.485zm-2.89-3.859c.283.461.556.97.82 1.534l-.791.395a11.696 11.696 0 0 0-.847-1.534l.818-.395zm3.304-.103l.81.395a8.556 8.556 0 0 1-.867 1.637l-.79-.414c.357-.546.64-1.082.847-1.618zm-6.664-.264l.942.198c-.061.25-.13.498-.208.743h1.563v.932h-1.883c-.14.348-.291.678-.442.979h2.165v.875h-.866v.885h1.186v.903h-1.186v1.836a7.56 7.56 0 0 0 1.148-.556l.17.857a11.02 11.02 0 0 1-2.231.847l-.405-.847c.236-.085.358-.217.358-.386v-1.75h-1.186v-.904h1.186v-.885h-.452v-.659c-.094.17-.188.33-.282.48l-.8-.508a9.777 9.777 0 0 0 1.223-3.04z" fill="#FA6E1E"/><path d="M28.901 31.511a1.176 1.176 0 0 0-1.662 1.663l3.137 3.137c.46.459 1.203.459 1.663 0l6.274-6.274a1.177 1.177 0 0 0-1.663-1.663l-5.443 5.443-2.306-2.306z" fill="#168BFF"/></svg>