<svg xmlns="http://www.w3.org/2000/svg" fill="none" width="49" height="49" viewBox="0 0 49 49"><path d="M29.99 20.677a.755.755 0 0 0-.8-.711h-9.533a.711.711 0 0 0 0 1.422h9.534a.733.733 0 0 0 .8-.711zm-1.622 4.444a.756.756 0 0 0-.777-.71h-7.934a.733.733 0 1 0 0 1.444h7.911c.466.015.84-.38.8-.845v.111zm-8.71 3.623a.733.733 0 1 0 0 1.444h4.844a.733.733 0 1 0 0-1.444h-4.845z" fill="#FA6E1E"/><path d="M27.59 33.722h-9.58a.778.778 0 0 1-.8-.733V18.5a.755.755 0 0 1 .8-.711h12.78a.756.756 0 0 1 .8.711v5.8a.8.8 0 0 0 1.578 0v-6.467a1.533 1.533 0 0 0-1.6-1.444H17.21a1.533 1.533 0 0 0-1.6 1.444V33.79c.048.83.748 1.47 1.578 1.444h10.378a.755.755 0 1 0 .022-1.51zM4.5 10.633A6.089 6.089 0 0 1 10.59 4.5h6.066v3h-5.934a3.067 3.067 0 0 0-3.11 3.133v6.111H4.5v-6.11zM16.79 44.5h-6.068a6.089 6.089 0 0 1-6.088-6.133v-6.111h3.11v6.11a3.067 3.067 0 0 0 3.112 3.134h6.066a21.599 21.599 0 0 0-.133 3zm27.577-6.133a6.089 6.089 0 0 1-6.089 6.133h-6.067v-3.133h6.067a3.067 3.067 0 0 0 3.111-3.134v-6.11H44.5l-.133 6.244zm0-21.623h-3.111v-6.11A3.067 3.067 0 0 0 38.145 7.5h-6.067v-3h6.067a6.089 6.089 0 0 1 6.088 6.133l.134 6.111z" fill="#168BFF"/><path d="M30.49 31.885V29.24h-.956v2.645h.955zm-2.868-2.645v2.645h.978V29.24h-.978zm4.778 0h-.978v2.645h.978v2.4c.293.34.819.34 1.111 0l2.4-2.956a1.2 1.2 0 0 0 0-1.466l-2.4-2.978a.733.733 0 0 0-1.177 0l.066 2.355z" fill="#FA6E1E"/></svg>