<svg width="48" height="48" viewBox="0 0 48 48" xmlns="http://www.w3.org/2000/svg"><title>编组 22</title><g fill="none"><path d="M40.328 38.593c7.719-8.616 7.444-21.871-.843-30.158A21.892 21.892 0 0 0 23.957 2 21.892 21.892 0 0 0 8.428 8.435c-8.57 8.57-8.57 22.477 0 31.048 4.29 4.29 9.91 6.425 15.529 6.425 5.234 0 10.477-1.86 14.63-5.591L42.17 43.9c.238.238.55.357.87.357.321 0 .624-.119.871-.357a1.228 1.228 0 0 0 0-1.733l-3.584-3.575zm-9.02 3.438a19.504 19.504 0 0 1-7.342 1.43c-2.53 0-5.005-.477-7.343-1.43a19.372 19.372 0 0 1-6.453-4.28 19.372 19.372 0 0 1-4.281-6.454 19.504 19.504 0 0 1-1.43-7.343c0-2.53.477-5.005 1.43-7.342.98-2.42 2.42-4.593 4.28-6.454a19.384 19.384 0 0 1 6.454-4.28 19.504 19.504 0 0 1 7.343-1.43c2.53 0 5.005.476 7.342 1.43 2.42.98 4.593 2.42 6.454 4.28a19.374 19.374 0 0 1 4.28 6.454 19.504 19.504 0 0 1 1.43 7.342c0 2.53-.476 5.005-1.43 7.343a19.372 19.372 0 0 1-4.28 6.453 19.465 19.465 0 0 1-6.454 4.28z" fill="#168BFF"/><path d="M26.844 29.5c.266.633.972.944 1.613.724a1.298 1.298 0 0 0 .743-1.778l-2.796-5.812a2.408 2.408 0 0 1 .018-2.126l3.08-6.151c.404-.798 0-1.77-.852-2.054a1.478 1.478 0 0 0-1.843.871l-2.63 6.949a4.205 4.205 0 0 0 .045 3.08l2.622 6.297zm5.894-.192a1.28 1.28 0 1 0 2.32-1.082l-2.549-5.023a3.64 3.64 0 0 1-.01-3.273l2.613-5.225a1.37 1.37 0 0 0-.806-1.916 1.375 1.375 0 0 0-1.687.789l-2.42 5.912a5.152 5.152 0 0 0 .027 3.942l2.512 5.876z" fill="#FA6E1E"/><path d="M21.298 29.683c.249.649.968.982 1.623.752a1.29 1.29 0 0 0 .751-1.75l-2.667-5.867a3.054 3.054 0 0 1 0-2.503l2.74-6.022c.34-.743.01-1.623-.733-1.971a1.488 1.488 0 0 0-2.025.861l-2.255 6.545a5.01 5.01 0 0 0 .055 3.41l2.511 6.545zm-6.856-12.576a1.255 1.255 0 0 0 1.622.87c.01 0 .018-.009.028-.009.65-.229.999-.944.77-1.595-.358-1.017-.706-2.044-1.064-3.061a1.17 1.17 0 0 0-1.54-.706l-.018.01a1.174 1.174 0 0 0-.688 1.438 50.9 50.9 0 0 1 .89 3.053z" fill="#FA6E1E"/><path d="M34.47 33.58c-2.09.256-4.638.44-7.653.54-3.731.128-6.848-1.402-9.332-2.97a1.888 1.888 0 0 1-.871-1.586c.01-1.53.028-4.464.064-6.59a1.592 1.592 0 0 0-1.586-1.614h-.669a54.73 54.73 0 0 1-2.41-.064 1.036 1.036 0 0 0-1.081.989l-.001.056v.037c0 .577.476 1.035 1.054 1.008.66-.028 1.219-.046 1.687-.055a.624.624 0 0 1 .641.632v6.014a4.16 4.16 0 0 1-1.42 3.126c-.321.284-.67.595-1.055.944a1.14 1.14 0 0 0 .083 1.741c.009.01.018.01.018.019.54.412 1.33.256 1.668-.34.367-.632.917-1.109 1.348-1.65.687-.87 1.375-1.063 2.356-.339.98.725 2.09 1.366 3.327 1.907 1.238.55 3.291.834 6.17.87 2.557.028 5.17.02 7.819-.036a1.296 1.296 0 0 0 1.21-.916c0-.01.009-.019.009-.028.302-.907-.431-1.815-1.375-1.696z" fill="#FA6E1E"/></g></svg>