<svg width="39" height="30" viewBox="0 0 39 30" xmlns="http://www.w3.org/2000/svg"><title>ipad</title><g fill="none" fill-rule="evenodd"><path d="M35.25 29.917H4.083A3.677 3.677 0 0 1 .417 26.25v-22A3.677 3.677 0 0 1 4.083.583H35.25a3.677 3.677 0 0 1 3.667 3.667v22a3.677 3.677 0 0 1-3.667 3.667z" fill="#168BFF" fill-rule="nonzero"/><path d="M2.292 3.614v23.272c0 .582.388.97.97.97h30.06c.582 0 .97-.388.97-.97V3.614c0-.582-.388-.97-.97-.97H3.262c-.582 0-.97.388-.97.97z" fill="#FFF" fill-rule="nonzero"/><text stroke="#FA6E1E" stroke-width="2" transform="translate(5.083 -2.583)" font-family="ArialRoundedMTBold, Arial Rounded MT Bold" font-size="11" fill="#FA6E1E"><tspan x="2.221" y="22.583">PAD</tspan></text><path d="M36.167 15.25v1.375a1.375 1.375 0 0 0 0-2.75 1.375 1.375 0 0 0 0 2.75V15.25z" fill="#FFF" fill-rule="nonzero"/></g></svg>