<svg width="48" height="48" viewBox="0 0 48 48" xmlns="http://www.w3.org/2000/svg"><title>盘点</title><g fill="none"><path d="M14.507 21.384c0-.906.745-1.648 1.655-1.648h13.08c.91 0 1.656.742 1.656 1.648 0 .907-.745 1.649-1.656 1.649h-13.08a1.658 1.658 0 0 1-1.655-1.65zm26.241 3.133a1.487 1.487 0 0 1-1.49-1.484v-9.44a.125.125 0 0 0-.124-.123H5.98v28.195c0 .682.558 1.237 1.242 1.237h15.977c.823 0 1.49.664 1.49 1.484s-.667 1.484-1.49 1.484H7.222C4.894 45.87 3 43.983 3 41.665V12.563c0-.45.149-.861.395-1.2a1.788 1.788 0 0 1 .282-1.526l3.955-5.382A3.584 3.584 0 0 1 10.512 3h24.215c1.134 0 2.211.544 2.88 1.455l3.954 5.382c.408.555.468 1.281.155 1.896-.015.028-.039.05-.055.077.361.505.577 1.118.577 1.783v9.44c0 .82-.666 1.484-1.49 1.484zm-5.546-18.31a.59.59 0 0 0-.475-.239H10.512a.593.593 0 0 0-.475.24L7.427 9.76h30.385l-2.61-3.553z" fill="#168BFF"/><path d="M33.257 25.919c4.094 0 7.44 3.253 7.57 7.3l.004.243a7.466 7.466 0 0 1-1.389 4.329l4.607 4.589c.58.578.58 1.516.003 2.096l-.001.001-.002.001a1.499 1.499 0 0 1-2.106 0l-4.667-4.648a7.53 7.53 0 0 1-4.02 1.176c-4.175 0-7.573-3.385-7.573-7.544s3.398-7.543 7.574-7.543zm0 2.968c-2.534 0-4.595 2.052-4.595 4.575s2.061 4.576 4.595 4.576c2.533 0 4.594-2.053 4.594-4.576 0-2.523-2.06-4.575-4.594-4.575z" fill="#FF5000"/></g></svg>