<svg width="48" height="48" viewBox="0 0 48 48" xmlns="http://www.w3.org/2000/svg"><title>编组 67</title><g fill="none" fill-rule="evenodd" stroke-linejoin="round"><path d="M30 7h8a4 4 0 0 1 4 4v27a4 4 0 0 1-4 4H11a4 4 0 0 1-4-4V11a4 4 0 0 1 4-4h7" stroke="#168BFF" stroke-width="2.6" stroke-linecap="round"/><path d="M12 35.594h24.182M12 38.621h3.023m21.159 0h-3.023" stroke="#FF9458" stroke-linecap="round" stroke-width="2"/><g stroke="#168BFF"><path stroke-width="1.5" d="M13.511 23.108h9.068v9.081h-9.068z"/><path stroke-width=".96" d="M16.534 23.108h3.023v3.027h-3.023z"/></g><g stroke="#168BFF"><path stroke-width="1.5" d="M19.557 11h9.068v9.081h-9.068z"/><path stroke-width=".96" d="M22.58 11h3.023v3.027H22.58z"/></g><g stroke="#168BFF"><path stroke-width="1.5" d="M25.602 23.108h9.068v9.081h-9.068z"/><path stroke-width=".96" d="M28.625 23.108h3.023v3.027h-3.023z"/></g></g></svg>