<svg xmlns="http://www.w3.org/2000/svg" fill="none" width="120" height="120" viewBox="0 0 120 120"><defs><clipPath id="a"><rect width="120" height="120" rx="0"/></clipPath></defs><g clip-path="url(#a)"><path d="M112.417 60.39q0 1.282-.063 2.562-.063 1.28-.188 2.556-.126 1.275-.314 2.543-.188 1.267-.438 2.524-.25 1.257-.562 2.5-.311 1.244-.683 2.47-.372 1.227-.804 2.433-.432 1.207-.922 2.391-.49 1.184-1.038 2.342-.548 1.16-1.153 2.29-.604 1.13-1.263 2.229-.658 1.1-1.37 2.165-.712 1.065-1.476 2.095-.763 1.029-1.576 2.02-.813.99-1.674 1.94-.86.95-1.767 1.856-.906.906-1.856 1.767-.95.86-1.94 1.673-.99.813-2.02 1.577-1.03.763-2.095 1.475-1.066.712-2.165 1.371-1.1.659-2.23 1.263-1.13.604-2.288 1.152-1.159.548-2.343 1.039-1.184.49-2.39.922-1.207.432-2.434.804-1.226.372-2.47.683-1.242.312-2.5.562-1.256.25-2.524.438t-2.543.314q-1.275.125-2.556.188-1.28.063-2.561.063-1.282 0-2.562-.063-1.28-.063-2.555-.188-1.276-.126-2.543-.314-1.268-.188-2.525-.438t-2.5-.562q-1.243-.311-2.47-.683-1.226-.372-2.433-.804-1.206-.432-2.39-.922-1.185-.49-2.343-1.039-1.159-.548-2.289-1.152-1.13-.604-2.23-1.263-1.099-.659-2.164-1.37-1.066-.713-2.095-1.476-1.03-.764-2.02-1.577t-1.94-1.673q-.95-.861-1.856-1.767-.907-.906-1.767-1.856-.86-.95-1.674-1.94-.813-.991-1.576-2.02-.764-1.03-1.476-2.095-.712-1.066-1.37-2.165-.66-1.1-1.264-2.23t-1.152-2.289q-.548-1.158-1.038-2.342-.49-1.184-.922-2.39-.432-1.207-.804-2.434-.372-1.226-.684-2.47-.311-1.243-.561-2.5-.25-1.257-.438-2.524-.188-1.268-.314-2.543-.125-1.276-.188-2.556t-.063-2.561q0-1.282.063-2.562.063-1.28.188-2.556.126-1.275.314-2.543.188-1.267.438-2.524.25-1.257.561-2.5.312-1.244.684-2.47.372-1.226.804-2.433.431-1.207.922-2.39.49-1.185 1.038-2.343.548-1.159 1.152-2.29.604-1.13 1.263-2.229.66-1.099 1.371-2.165.712-1.065 1.476-2.095.763-1.029 1.576-2.02.813-.99 1.674-1.94.86-.95 1.767-1.856.906-.906 1.855-1.767.95-.86 1.94-1.673.991-.813 2.02-1.577 1.03-.763 2.096-1.475 1.065-.712 2.165-1.371 1.099-.659 2.23-1.263 1.13-.604 2.288-1.152 1.158-.548 2.342-1.038 1.185-.49 2.391-.923 1.207-.431 2.433-.803 1.227-.372 2.47-.684 1.243-.311 2.5-.561 1.257-.25 2.525-.438 1.267-.188 2.543-.314 1.275-.126 2.555-.189 1.28-.062 2.562-.062 1.281 0 2.561.062 1.28.063 2.556.189 1.275.126 2.543.314 1.268.188 2.525.438t2.5.561q1.243.312 2.47.684 1.226.372 2.433.803 1.206.432 2.39.923 1.184.49 2.343 1.038 1.158.548 2.289 1.152 1.13.604 2.23 1.263 1.098.659 2.164 1.37 1.066.713 2.095 1.476 1.03.764 2.02 1.577t1.94 1.673q.95.861 1.856 1.767.906.907 1.767 1.856.86.95 1.674 1.94.813.991 1.576 2.02.764 1.03 1.476 2.095.712 1.066 1.37 2.165.66 1.1 1.263 2.23.605 1.13 1.153 2.289.547 1.158 1.038 2.342.49 1.184.922 2.39.432 1.208.804 2.434.372 1.226.683 2.47.312 1.243.562 2.5.25 1.257.438 2.524.188 1.268.314 2.543.125 1.276.188 2.556t.063 2.562z" fill="#EBF3FF"/><path d="M76.373 26.616H43.715c-9.87 0-17.868 7.998-17.868 17.868v32.658c0 9.87 7.998 17.868 17.868 17.868h32.658c9.87 0 17.868-7.998 17.868-17.868V44.484c0-9.87-7.998-17.868-17.868-17.868zM38.02 45.984c0-3.966 3.228-7.194 7.194-7.194h7.278a2.713 2.713 0 0 1 0 5.424h-7.278c-.978 0-1.77.798-1.77 1.77v6.366a2.713 2.713 0 0 1-5.424 0v-6.366zm14.73 36.852h-7.536c-3.966 0-7.194-3.228-7.194-7.194v-6.558a2.713 2.713 0 0 1 5.424 0v6.558c0 .978.798 1.77 1.77 1.77h7.536a2.713 2.713 0 0 1 2.712 2.712 2.72 2.72 0 0 1-2.712 2.712zm29.31-7.194c0 3.966-3.228 7.194-7.194 7.194h-8.028a2.713 2.713 0 0 1 0-5.424h8.034c.978 0 1.77-.798 1.77-1.77v-6.558a2.713 2.713 0 0 1 5.424 0v6.558h-.006zm-2.706-12.216H40.733a2.713 2.713 0 0 1 0-5.424h38.622a2.713 2.713 0 0 1 2.712 2.712 2.717 2.717 0 0 1-2.712 2.712zM82.06 52.35a2.713 2.713 0 0 1-5.424 0v-6.366c0-.978-.798-1.77-1.77-1.77h-8.028a2.713 2.713 0 0 1 0-5.424h8.034c3.966 0 7.194 3.228 7.194 7.194v6.366h-.006z" fill="#5097FF"/><path d="M92.573 48.875c.626-3.075.952-6.204.972-9.342-2.148-7.464-9.018-12.924-17.172-12.924H43.715c-9.87 0-17.868 7.998-17.868 17.868v32.658c0 2.382.468 4.65 1.314 6.726a48.491 48.491 0 0 0 8.562 2.598 47.97 47.97 0 0 0 30.402-3.738 2.705 2.705 0 0 1 .72-5.316h7.908c.636-.492 1.26-.996 1.872-1.512.012-.084.024-.168.024-.258v-6.558a2.713 2.713 0 0 1 5.424 0v1.386a48.038 48.038 0 0 0 10.5-21.588zm-25.734-10.08h8.034c3.966 0 7.194 3.228 7.194 7.194v6.366a2.713 2.713 0 0 1-5.424 0v-6.372c0-.978-.798-1.77-1.77-1.77h-8.034a2.713 2.713 0 0 1-2.712-2.712 2.716 2.716 0 0 1 2.712-2.706zM38.02 45.983c0-3.966 3.228-7.194 7.194-7.194h7.278a2.713 2.713 0 0 1 0 5.424h-7.278c-.978 0-1.77.798-1.77 1.77v6.366a2.713 2.713 0 0 1-5.424 0v-6.366zm14.73 36.852h-7.536c-3.966 0-7.194-3.228-7.194-7.194v-6.558a2.713 2.713 0 0 1 5.424 0v6.558c0 .978.792 1.77 1.77 1.77h7.536a2.713 2.713 0 0 1 2.712 2.712 2.72 2.72 0 0 1-2.712 2.712zm26.604-19.41H40.733a2.713 2.713 0 0 1 0-5.424h38.622a2.713 2.713 0 0 1 2.712 2.712 2.717 2.717 0 0 1-2.712 2.712z" fill="#5E9FFF"/><path d="M76.373 26.616H43.715c-9.87 0-17.868 7.998-17.868 17.868V70.05c4.122.408 8.202.342 12.18-.15v-.816a2.713 2.713 0 0 1 2.712-2.712 2.698 2.698 0 0 1 2.694 2.574 55.155 55.155 0 0 0 14.46-5.526h-17.16a2.713 2.713 0 0 1 0-5.424h25.212a55.316 55.316 0 0 0 10.704-11.538v-.486c0-.978-.798-1.77-1.77-1.77h-8.04a2.713 2.713 0 0 1 0-5.424h8.034a7.18 7.18 0 0 1 5.124 2.154 55.191 55.191 0 0 0 4.716-12.264 17.958 17.958 0 0 0-8.34-2.052zm-23.88 17.598h-7.278c-.978 0-1.77.798-1.77 1.77v6.366a2.713 2.713 0 0 1-5.424 0v-6.366c0-3.966 3.228-7.194 7.194-7.194h7.278a2.713 2.713 0 0 1 2.712 2.712 2.72 2.72 0 0 1-2.712 2.712z" fill="#73AAFF"/><path d="M38.02 50.142v-4.158c0-3.966 3.229-7.194 7.195-7.194h7.278a2.692 2.692 0 0 1 2.676 2.406 54.655 54.655 0 0 0 13.14-14.58H43.715c-9.87 0-17.868 7.998-17.868 17.868v7.998a54.09 54.09 0 0 0 12.174-2.34z" fill="#86B4FF"/><path d="M43.44 45.985v2.136a55.25 55.25 0 0 0 7.41-3.912h-5.64a1.782 1.782 0 0 0-1.77 1.776z" fill="#86B4FF"/></g></svg>