<svg width="48" height="48" viewBox="0 0 48 48" xmlns="http://www.w3.org/2000/svg"><title>库存</title><g fill="none"><path d="M42.704 13.468L39.285 6.89C38.441 5.27 36.348 4 34.522 4H13.505c-1.824 0-3.924 1.262-4.776 2.871l-3.415 6.443C4.576 14.708 4 17.032 4 18.607V40.25C4 42.318 5.68 44 7.75 44h32.5A3.754 3.754 0 0 0 44 40.25V18.76c0-1.572-.569-3.898-1.296-5.292zM7.526 14.483l3.413-6.44c.427-.806 1.65-1.543 2.566-1.543h21.017c.91 0 2.124.737 2.546 1.545l3.419 6.575c.16.313.312.713.451 1.143H7.025c.151-.481.318-.935.5-1.28zM41.5 40.25c0 .688-.56 1.25-1.25 1.25H7.75a1.25 1.25 0 0 1-1.25-1.25V18.607c0-.1.02-.232.03-.344h34.928c.015.166.042.351.042.498V40.25z" fill="#168BFF"/><path d="M24 21a7.95 7.95 0 0 0-8 8c0 4.457 3.543 8 8 8s8-3.543 8-8-3.543-8-8-8zm0 13.486c-1.257 0-2.4-.457-3.314-1.029l7.771-7.771c.686.914 1.029 2.057 1.029 3.314 0 3.086-2.4 5.486-5.486 5.486zm-4.914-2.857c-.457-.8-.686-1.6-.686-2.629 0-3.086 2.514-5.486 5.486-5.486a5.31 5.31 0 0 1 2.628.686l-7.428 7.429z" fill="#FA6E1E"/></g></svg>