<svg width="48" height="48" viewBox="0 0 48 48" xmlns="http://www.w3.org/2000/svg"><title>库存</title><g fill="none"><path d="M42.704 13.468L39.285 6.89C38.441 5.27 36.348 4 34.522 4H13.505c-1.824 0-3.924 1.262-4.776 2.871l-3.415 6.443C4.576 14.708 4 17.032 4 18.607V40.25C4 42.318 5.68 44 7.75 44h32.5A3.754 3.754 0 0 0 44 40.25V18.76c0-1.572-.569-3.898-1.296-5.292zM7.526 14.483l3.413-6.44c.427-.806 1.65-1.543 2.566-1.543h21.017c.91 0 2.124.737 2.546 1.545l3.419 6.575c.16.313.312.713.451 1.143H7.025c.151-.481.318-.935.5-1.28zM41.5 40.25c0 .688-.56 1.25-1.25 1.25H7.75a1.25 1.25 0 0 1-1.25-1.25V18.607c0-.1.02-.232.03-.344h34.928c.015.166.042.351.042.498V40.25z" fill="#168BFF"/><path d="M31.814 30.85a.99.99 0 0 1 .04.282l-.114.213-.028.048c-.282.48-1.185.593-1.672.636a28.46 28.46 0 0 1-1.407-.015l-1.16-2.546v-.064l-.019.026-.144-.32 2.91-1.79c.634.987 1.213 2.077 1.594 3.53zM26.792 22c.826.382 1.371 1.128 1.8 2.024l1.57-.933-1.9 4.256-4.515-.446 1.557-.923a24.551 24.551 0 0 0-1.298-2.62c-.53-.81-1.078-1.359-1.665-1.336L26.792 22zm-5.192.606a.902.902 0 0 1 .504-.278h.222l.156.007c.515.088 1.012.789 1.27 1.184.204.36.4.723.586 1.09l-2.005 2.9-2.938-1.74c.523-1.052 1.161-2.108 2.203-3.163h.002zm-4.527 9.53c-.171-.916.104-1.804.57-2.682L16 28.666l4.468-.846 2.244 4.066-1.63-.782a25.04 25.04 0 0 0-1.328 2.602c-.337.914-.458 1.69-.104 2.172a1907.54 1907.54 0 0 1-2.576-3.741h-.001zm3.34 3.926a.84.84 0 0 1-.38-.156l-.142-.204a1.61 1.61 0 0 1-.032-.046c-.297-.469-.008-1.358.168-1.83.183-.414.376-.823.578-1.227l3.272.023.312 3.48c-1.136.163-2.339.235-3.775-.04zm9.425-.557c-.73.553-1.628.68-2.593.624L27.263 38l-2.665-3.795 2.588-3.841.019 1.853c.968.105 1.913.132 2.848.116.944-.08 1.677-.3 1.947-.839l-2.162 4.012v-.001z" fill="#FA6E1E"/></g></svg>