<svg width="84" height="84" viewBox="0 0 84 84" xmlns="http://www.w3.org/2000/svg"><title>奖品</title><g fill="none"><path d="M42 2c22.09 0 40 17.91 40 40S64.09 82 42 82 2 64.09 2 42 19.91 2 42 2z" stroke="#FFF" stroke-width="4" fill="#168BFF"/><path d="M40.4 42.195H22.01V61.78c0 1.133.914 2.038 2.055 2.038H40.4V42.195zm21.59.112H43.6v21.511h16.335a2.037 2.037 0 0 0 2.054-2.036V42.306l.002.001zM57.194 27.25c.343-2.264-2.4-5.662-5.94-5.207-3.998.563-7.082 3.962-9.138 6.565-2.057-2.603-4.799-5.547-8.682-6.454-3.77-.904-6.397 2.832-6.284 5.096.115 1.926 1.944 2.944 4.342 3.51h-9.138c-1.144 0-2.171.905-2.171 2.15v7.7h20.105v-9.624c.8-.112 1.371-.112 1.942-.227h.113c.343 0 .914.115 1.37.115v9.736h20.106v-7.7a2.16 2.16 0 0 0-2.17-2.15h-9.024c2.4-.454 4.227-1.585 4.569-3.51zM30.12 25.551c.8-1.246 1.942-2.036 3.77-1.358 2.626 1.018 4.568 3.169 6.168 5.094-3.427.34-8.338.453-10.167-1.358-.686-.68-.227-1.698.229-2.378zm20.333-1.473c2.742-1.245 5.254 2.153 4 3.851-.915 1.246-4.115 1.358-5.942 1.473-1.371 0-2.855 0-4.226-.115 1.713-2.038 3.54-3.963 6.168-5.209z" fill="#FFF"/></g></svg>