<svg width="44" height="48" viewBox="0 0 44 48" xmlns="http://www.w3.org/2000/svg"><title>抽盘</title><g fill="none"><path d="M37.142 2H5.224C3.452 2 2 3.477 2 5.281v37.426c0 1.806 1.452 3.281 3.224 3.281H23.12a15.03 15.03 0 0 1-5.905-11.984c0-8.253 6.579-14.95 14.684-14.95 3.15 0 6.068 1.01 8.46 2.732V5.282C40.366 3.477 38.914 2 37.142 2z" stroke="#168BFF" stroke-width="2.5" stroke-linejoin="round"/><path d="M14.924 38.543h-4.557c-.822 0-1.459-.752-1.366-1.616 0-.864.641-1.621 1.366-1.621h4.555c.73 0 1.366.757 1.366 1.62 0 .865-.641 1.62-1.366 1.62l.002-.003zm.959-8.311h-5.298c-.954 0-1.589-.755-1.589-1.619s.741-1.621 1.589-1.621h5.298a1.644 1.644 0 0 1 1.591 1.621c0 .864-.74 1.621-1.59 1.621v-.002zm4.013-7.443h-9.61c-.774 0-1.285-.755-1.285-1.621 0-.862.602-1.619 1.285-1.619h9.61c.688 0 1.286.757 1.286 1.621s-.598 1.619-1.286 1.619zm11.883-8.309H10.585c-.954 0-1.589-.755-1.589-1.619s.741-1.619 1.589-1.619h21.194a1.644 1.644 0 0 1 1.59 1.621c0 .862-.74 1.617-1.59 1.617z" fill="#168BFF"/><path d="M36.887 31.22h-.662l-.641-.027v3.631h1.303v-3.603zm-4.606 5.901a69.348 69.348 0 0 0-.037 2.05v.472h1.228v-3.566h-1.19v1.044zm3.303-1.049v1.339c0 1.361-.042 1.748-.074 1.91a2.21 2.21 0 0 1-.058.318h1.396v-1.747a92.37 92.37 0 0 0 .028-1.806c-.224-.01-.448-.014-.672-.014h-.62z" fill="#FA6E1E"/><path d="M31.908 22.018c-6.5 0-11.778 5.368-11.778 11.99C20.133 40.629 25.403 46 31.908 46c6.496 0 11.776-5.368 11.776-11.991-.004-6.623-5.277-11.991-11.776-11.991zm7.087 10.986c0 2.431-.012 4.335-.037 5.646 0 2.401-.093 2.612-.135 2.716a7.31 7.31 0 0 1-.192.424l-.011.02-.017.024a3.08 3.08 0 0 1-.282.324c-.13.13-.289.23-.463.29a1.366 1.366 0 0 1-.496.092h-.475l-.048-1.056v-.549h-4.643c-.022.157-.063.31-.123.457a1.975 1.975 0 0 1-.287.544 1.25 1.25 0 0 1-.45.412c-.178.12-.383.191-.597.208-.065.005-.116.005-.164.005-.151 0-.241-.023-.31-.07-.149-.104-.149-.104-.156-1.815-.005-1.042 0-2.626.016-4.69l.033-5.407h-1.404v1.561c0 .672 0 1.098.005 1.357l.232-.125c.643-.347.671-.347.745-.347.176 0 .278.13.294.38.005.099.01.229.01.414v.723l-.7.38c-.324.161-.474.25-.544.293-.014.174-.042.711-.042 2.379 0 1.037-.004 1.75-.016 2.119a5.55 5.55 0 0 1-.058.773v.005a3.82 3.82 0 0 1-.199.648 1.885 1.885 0 0 1-.458.644 1.586 1.586 0 0 1-.56.43 5.03 5.03 0 0 1-.39.158l-.042.016h-.421v-3.334c0-1.506-.007-2.27-.016-2.643l-.36.19c-.75.445-.794.445-.88.445-.122 0-.27-.065-.303-.375a4.13 4.13 0 0 1-.016-.424v-.69l.294-.15c.063-.033.246-.137.753-.44l.016-.012.51-.262v-4.115H24.81v-1.255h1.799v-1.635c0-1.973.005-1.99.046-2.066.086-.174.2-.185 1.026-.185h.01l1.018.05.077 3.808.442.023h.994v.185h2.054v.413h1.19v-4.261h2.112v4.26h1.301V29.5h2.115v3.506-.002z" fill="#FA6E1E"/><path d="M32.297 31.188c-.011.234-.016.746-.016 1.848v1.783h1.19v-3.642h-.576l-.598.011z" fill="#FA6E1E"/></g></svg>