<svg width="48" height="48" viewBox="0 0 48 48" xmlns="http://www.w3.org/2000/svg"><title>编组 67备份</title><g fill="none" fill-rule="evenodd"><path d="M30 7h8a4 4 0 0 1 4 4v27a4 4 0 0 1-4 4H11a4 4 0 0 1-4-4V11a4 4 0 0 1 4-4h7" stroke="#168BFF" stroke-width="2.6" stroke-linecap="round" stroke-linejoin="round"/><g stroke="#168BFF"><g stroke-linejoin="round"><path stroke-width="1.5" d="M20.5 18.5h9v9h-9z"/><path stroke-width="1.2" d="M23.5 18.5h3v3h-3z"/></g><path stroke-width="1.5" stroke-linecap="round" d="M20.5 18.5L25 14m4.5 4.5l-2.25-2.25"/></g><path d="M13 31.625h24m-24 3h3m21 0h-3" stroke="#FF9458" stroke-linecap="round" stroke-linejoin="round" stroke-width="2"/></g></svg>