<svg width="48" height="48" viewBox="0 0 48 48" xmlns="http://www.w3.org/2000/svg"><title>编组 35</title><g fill="none"><path d="M43.126 42.85a2.144 2.144 0 1 0 0 4.287 2.144 2.144 0 1 0 0-4.287zm-12.543 0a2.144 2.144 0 0 0-2.149 2.143v.002a2.144 2.144 0 0 0 2.149 2.142 2.144 2.144 0 1 0 0-4.287z" fill="#168BFF"/><path d="M46.848 40.437v3.286a3.247 3.247 0 0 0-1.073-1.77 4.038 4.038 0 0 0-3.86-.807l-.046.016.034-.725h4.945zM26 32h13.862l.006 10.617-.055.074a4.03 4.03 0 0 0-.37.653l-.098.234h-4.983a4.044 4.044 0 0 0-3.78-2.619 4.015 4.015 0 0 0-2.645.99 4.063 4.063 0 0 0-1.038 1.395l-.097.234H26V32z" stroke="#168BFF" stroke-width="2"/><path d="M45.472 19.71L25.038 2.373a1.572 1.572 0 0 0-2.034 0L2.57 19.71a1.572 1.572 0 1 0 2.034 2.397l.544-.46v22.78a1.572 1.572 0 0 0 3.145 0V18.98L24.02 5.634l15.73 13.347v9.74a1.572 1.572 0 0 0 3.146 0V21.65l.54.458a1.572 1.572 0 1 0 2.034-2.397zM11.435 41.27h4.127c.393 0 .59.197.59.59v3.538c0 .393-.197.59-.59.59h-3.538c-.393 0-.59-.197-.59-.59V41.86c0-.393.197-.59.59-.59h-.59zm7.076 0h4.127c.393 0 .59.197.59.59v3.538c0 .393-.197.59-.59.59H19.1c-.393 0-.59-.197-.59-.59V41.86c0-.393.197-.59.59-.59h-.59zm-7.04-6.245h4.127c.393 0 .59.197.59.59v3.538c0 .393-.197.59-.59.59H12.06c-.393 0-.59-.197-.59-.59v-3.538c0-.393.197-.59.59-.59h-.59zm0-6.264h4.127c.393 0 .59.197.59.59v3.538c0 .393-.197.59-.59.59H12.06c-.393 0-.59-.197-.59-.59V29.35c0-.393.197-.59.59-.59h-.59zm7.04 6.228h4.127c.393 0 .59.197.59.59v3.538c0 .393-.197.59-.59.59H19.1c-.393 0-.59-.197-.59-.59v-3.538c0-.393.197-.59.59-.59h-.59z" fill="#168BFF"/><path d="M24 14a7 7 0 1 1 0 14 7 7 0 0 1 0-14zm-1.346 2.693h-1.616l1.538 2.69-1.538.002v1.345h2.154v.808h-2.154v1.347h2.154v2.422h1.615v-2.422h2.154v-1.346h-2.154v-.808h2.154v-1.346h-1.539l1.54-2.692h-1.617l-1.347 2.356-1.346-2.357h.002z" fill="#FA6E1E"/></g></svg>