<svg width="48" height="48" viewBox="0 0 48 48" xmlns="http://www.w3.org/2000/svg"><title>应用管理</title><g fill="none"><path d="M17.23 3.5c.989 0 1.883.4 2.53 1.048a3.566 3.566 0 0 1 1.048 2.529V17.23c0 .988-.4 1.882-1.048 2.529a3.566 3.566 0 0 1-2.53 1.048H7.078c-.988 0-1.882-.4-2.53-1.048A3.566 3.566 0 0 1 3.5 17.23V7.109c.049-1.11.448-1.987 1.102-2.614A3.565 3.565 0 0 1 7.077 3.5zm0 23.692c.989 0 1.883.4 2.53 1.048a3.566 3.566 0 0 1 1.048 2.53v10.153c0 .988-.4 1.882-1.048 2.53a3.566 3.566 0 0 1-2.53 1.047H7.078c-.988 0-1.882-.4-2.53-1.048A3.566 3.566 0 0 1 3.5 40.923V30.8c.049-1.11.448-1.986 1.102-2.613a3.565 3.565 0 0 1 2.475-.995zm24 .308c.989 0 1.883.4 2.53 1.048a3.566 3.566 0 0 1 1.048 2.529V41.23c0 .988-.4 1.882-1.048 2.529a3.566 3.566 0 0 1-2.53 1.048H31.078c-.988 0-1.882-.4-2.53-1.048a3.566 3.566 0 0 1-1.047-2.53v-10.12c.049-1.11.448-1.987 1.102-2.614a3.565 3.565 0 0 1 2.475-.994z" stroke="#168BFF" stroke-width="3" fill="#FFF"/><path d="M35.846 12.154H25.692c0 5.608 4.546 10.154 10.154 10.154S46 17.762 46 12.154 41.454 2 35.846 2 25.692 6.546 25.692 12.154h10.154z" fill="#FA6E1E"/></g></svg>