<svg width="48" height="48" viewBox="0 0 48 48" xmlns="http://www.w3.org/2000/svg"><title>编组 54</title><g fill="none" fill-rule="evenodd"><path d="M15.305 17.158v15.69c0 .495-.263.951-.694 1.2a1.38 1.38 0 0 1-1.384 0 1.39 1.39 0 0 1-.694-1.2v-15.69c0-.764.62-1.384 1.383-1.384a1.379 1.379 0 0 1 1.389 1.384zm5.543 0v15.69c0 .495-.263.951-.694 1.2a1.38 1.38 0 0 1-1.384 0 1.39 1.39 0 0 1-.694-1.2v-15.69c0-.764.62-1.384 1.383-1.384a1.382 1.382 0 0 1 1.389 1.384zm11.076 0v15.69c0 .495-.263.951-.694 1.2a1.38 1.38 0 0 1-1.384 0 1.39 1.39 0 0 1-.694-1.2v-15.69c0-.496.263-.952.694-1.2a1.38 1.38 0 0 1 1.384 0c.426.248.694.704.694 1.2zm5.538 0v15.69c0 .495-.263.951-.694 1.2a1.38 1.38 0 0 1-1.383 0 1.39 1.39 0 0 1-.695-1.2v-15.69c0-.496.263-.952.695-1.2a1.38 1.38 0 0 1 1.383 0c.431.248.694.704.694 1.2z" fill="#168BFF" fill-rule="nonzero"/><path d="M7 19v-6a6 6 0 0 1 6-6h6M7 30v6a6 6 0 0 0 6 6h6m23-23v-6a6 6 0 0 0-6-6h-6m12 23v6a6 6 0 0 1-6 6h-6" stroke="#168BFF" stroke-width="2.4" stroke-linecap="round" stroke-linejoin="round"/><path d="M26.664 15.032v19.612c0 .62-.328 1.19-.867 1.5-.533.31-1.196.31-1.73 0a1.739 1.739 0 0 1-.867-1.5V15.032c0-.62.328-1.19.868-1.5a1.724 1.724 0 0 1 1.729 0c.533.31.867.88.867 1.5z" fill="#FF5000" fill-rule="nonzero"/></g></svg>