<svg xmlns="http://www.w3.org/2000/svg" fill="none" width="49" height="49" viewBox="0 0 49 49"><path d="M4.5 10.633A6.089 6.089 0 0 1 10.59 4.5h6.066v3h-5.934a3.067 3.067 0 0 0-3.11 3.133v6.111H4.5v-6.11zM16.79 44.5h-6.068a6.089 6.089 0 0 1-6.088-6.133v-6.111h3.11v6.11a3.067 3.067 0 0 0 3.112 3.134h6.066a21.599 21.599 0 0 0-.133 3zm27.577-6.133a6.089 6.089 0 0 1-6.089 6.133h-6.067v-3.133h6.067a3.067 3.067 0 0 0 3.111-3.134v-6.11H44.5l-.133 6.244zm0-21.623h-3.111v-6.11A3.067 3.067 0 0 0 38.145 7.5h-6.067v-3h6.067a6.089 6.089 0 0 1 6.088 6.133l.134 6.111z" fill="#168BFF"/><path d="M40.293 22.046a6.175 6.175 0 0 1-1.73 2.179.87.87 0 0 1 .206 1.02l-3.047 6.403a.91.91 0 0 1-1.2.428l-2.6-1.182a2.753 2.753 0 0 1-3.076.543l-5.182-2.365-1.755 3.434a2.699 2.699 0 0 1-2.421 1.463H14.92v.882a2.683 2.683 0 0 1-2.707 2.649h-1.81a.894.894 0 0 1-.904-.88v-8.83a.894.894 0 0 1 .902-.877h1.807a2.709 2.709 0 0 1 2.55 1.752h3.055l.94-1.838-4.63-2.113a4.388 4.388 0 0 1-2.186-5.862l2.293-4.802a4.56 4.56 0 0 1 5.994-2.133l19.631 8.955a.889.889 0 0 1 .466.5.866.866 0 0 1-.029.675v-.001zM12.21 28.665h-.902v7.064h.902a.895.895 0 0 0 .902-.883v-5.291a.895.895 0 0 0-.902-.882v-.008zm22.253 1.433l2.288-4.804-.084-.039a6.453 6.453 0 0 1-2.057.354l-1.788 3.738 1.635.747.006.004zm-16.088.336h-3.453V32.2h4.573a.899.899 0 0 0 .813-.488l1.732-3.39-1.637-.747-1.212 2.371a.903.903 0 0 1-.812.488l-.004.001zm-3.653-13.24l-1.137 2.395a2.63 2.63 0 0 0 1.31 3.52l14.72 6.717a.91.91 0 0 0 1.2-.427l1.934-4.063a6.483 6.483 0 0 1-.845-.325l-17.182-7.816zm4.75-3.678a2.737 2.737 0 0 0-3.596 1.274l-.382.796 17.167 7.849a4.576 4.576 0 0 0 5.526-1.373L19.47 13.516zm9.263 13.975l-3.273-1.495a.886.886 0 0 1-.573-.72.876.876 0 0 1 .4-.832.915.915 0 0 1 .937-.032l3.271 1.493a.886.886 0 0 1 .574.728.876.876 0 0 1-.4.832.915.915 0 0 1-.938.033l.002-.007z" fill="#168BFF"/></svg>