<svg width="48" height="48" viewBox="0 0 48 48" xmlns="http://www.w3.org/2000/svg"><title>生产</title><g fill="none"><path d="M25.98 36.069H5.594a1.106 1.106 0 0 1-1.104-1.105v-10.49c0-.609.496-1.105 1.104-1.105h20.383c.609 0 1.104.496 1.104 1.105v10.49a1.099 1.099 0 0 1-1.1 1.105zm-19.277-2.21h18.173v-8.28H6.703v8.28z" fill="#FA6E1E"/><path d="M25.98 25.578H5.594c-.338 0-.657-.157-.868-.422a1.116 1.116 0 0 1-.207-.947L6.781 14.9a1.103 1.103 0 0 1 1.076-.844h15.93c.51 0 .957.353 1.075.854l2.189 9.307c.079.33 0 .678-.211.943-.206.265-.52.417-.86.417zM7.003 23.37h17.58l-1.67-7.098H8.73L7.002 23.37z" fill="#FA6E1E"/><path d="M41.98 46H6.37A4.372 4.372 0 0 1 2 41.63v-.161c0-2.41 1.959-4.37 4.37-4.37h35.61c2.41 0 4.369 1.96 4.369 4.37v.162c0 2.41-1.96 4.369-4.37 4.369zM6.37 39.309a2.16 2.16 0 0 0-2.16 2.16v.162a2.16 2.16 0 0 0 2.16 2.16h35.61a2.16 2.16 0 0 0 2.16-2.16v-.162a2.16 2.16 0 0 0-2.16-2.16H6.37zM33.098 9.432a3.717 3.717 0 1 1 3.716-3.716A3.72 3.72 0 0 1 33.1 9.432zm0-5.218a1.502 1.502 0 1 0 0 3.004 1.502 1.502 0 0 0 0-3.004zm5.856 23.544a4.393 4.393 0 0 1-4.388-4.389 4.393 4.393 0 0 1 4.388-4.389 4.393 4.393 0 0 1 4.39 4.39 4.397 4.397 0 0 1-4.39 4.388zm0-6.568a2.181 2.181 0 0 0 0 4.36 2.181 2.181 0 0 0 0-4.36z" fill="#168BFF"/><path d="M43.221 38.818c-.574 0-1.06-.447-1.1-1.03L41.146 23.6 34.67 6.104a1.102 1.102 0 0 1 .653-1.419 1.1 1.1 0 0 1 1.418.653l6.534 17.648a.94.94 0 0 1 .064.31l.987 14.344a1.102 1.102 0 0 1-1.026 1.178h-.079zM33.1 38.42a1.107 1.107 0 0 1-1.09-1.306l2.528-13.69-5.11-17.394a1.102 1.102 0 0 1 .751-1.37 1.098 1.098 0 0 1 1.37.752l5.184 17.648c.049.167.059.344.024.51l-2.572 13.947c-.098.53-.565.903-1.085.903z" fill="#168BFF"/><path d="M16.07 10.498c-.28 0-.55-.108-.757-.3-.22-.21-.348-.5-.348-.805V6.305a1.1 1.1 0 0 1 .903-1.085l17.03-3.19a1.11 1.11 0 0 1 1.29.883 1.108 1.108 0 0 1-.883 1.291L17.18 7.228v.997l15.856-.992a1.124 1.124 0 0 1 1.173 1.036 1.108 1.108 0 0 1-1.035 1.173l-17.03 1.065c-.03-.01-.054-.01-.074-.01z" fill="#168BFF"/></g></svg>