<svg width="40" height="35" viewBox="0 0 40 35" xmlns="http://www.w3.org/2000/svg"><title>电视</title><g fill="none"><path d="M5.02 25.674c-.249 0-.46-.227-.46-.497V5.057c0-.269.211-.496.46-.496h29.96c.249 0 .46.227.46.496v20.12c0 .27-.211.497-.46.497H5.02z" fill="#FFF"/><path d="M34.98 0H5.02C2.251 0 0 2.269 0 5.057v20.12c0 2.789 2.251 5.058 5.02 5.058h29.96c2.769 0 5.02-2.27 5.02-5.058V5.057C40 2.27 37.749 0 34.98 0zm2.74 25.177c0 1.531-1.23 2.777-2.74 2.777H5.02c-1.51 0-2.74-1.246-2.74-2.777V5.057c0-1.531 1.23-2.777 2.74-2.777h29.96c1.51 0 2.74 1.246 2.74 2.777v20.12zm-5.068 8.382v.621a.416.416 0 0 1-.414.415H8.193a.416.416 0 0 1-.415-.415v-.621a2.287 2.287 0 0 1 2.28-2.28h20.314a2.287 2.287 0 0 1 2.28 2.28z" fill="#168BFF"/><path d="M19.008 12.462a1.3 1.3 0 0 1-1.24 1.298h-2.514v6.337a1.3 1.3 0 1 1-2.6 0v-6.334h-2.517a1.3 1.3 0 0 1 0-2.6h7.632c.694.032 1.24.604 1.239 1.299zm11.083.592l-3.841 7.637a1.264 1.264 0 0 1-2.265 0l-3.845-7.637a1.314 1.314 0 0 1 .551-1.748 1.26 1.26 0 0 1 1.713.563l2.709 5.384 2.714-5.384a1.262 1.262 0 0 1 1.714-.563h-.003c.628.337.873 1.112.553 1.748z" fill="#FA6E1E"/></g></svg>