<svg width="48" height="48" viewBox="0 0 48 48" xmlns="http://www.w3.org/2000/svg"><title>编组 22</title><g fill="none"><path d="M45.472 19.71L25.038 2.373a1.572 1.572 0 0 0-2.034 0L2.57 19.71a1.572 1.572 0 1 0 2.034 2.397l.544-.46v22.78a1.572 1.572 0 0 0 3.145 0V18.98L24.02 5.634l15.73 13.347v9.74a1.572 1.572 0 0 0 3.146 0V21.65l.54.458a1.572 1.572 0 1 0 2.034-2.397zM11.435 41.27h4.127c.393 0 .59.197.59.59v3.538c0 .393-.197.59-.59.59h-3.538c-.393 0-.59-.197-.59-.59V41.86c0-.393.197-.59.59-.59h-.59zm7.076 0h4.127c.393 0 .59.197.59.59v3.538c0 .393-.197.59-.59.59H19.1c-.393 0-.59-.197-.59-.59V41.86c0-.393.197-.59.59-.59h-.59zm-7.04-6.245h4.127c.393 0 .59.197.59.59v3.538c0 .393-.197.59-.59.59H12.06c-.393 0-.59-.197-.59-.59v-3.538c0-.393.197-.59.59-.59h-.59zm0-6.264h4.127c.393 0 .59.197.59.59v3.538c0 .393-.197.59-.59.59H12.06c-.393 0-.59-.197-.59-.59V29.35c0-.393.197-.59.59-.59h-.59zm7.04 6.228h4.127c.393 0 .59.197.59.59v3.538c0 .393-.197.59-.59.59H19.1c-.393 0-.59-.197-.59-.59v-3.538c0-.393.197-.59.59-.59h-.59z" fill="#168BFF"/><path d="M28.916 34.265a6.61 6.61 0 0 1 9.056-2.348 6.63 6.63 0 0 1 2.344 9.07l3.202 3.215.01.01a1.64 1.64 0 0 1-.013 2.315 1.633 1.633 0 0 1-2.311-.013l-3.192-3.203a6.606 6.606 0 0 1-6.752.023 6.63 6.63 0 0 1-2.344-9.07zM34.5 34a3.5 3.5 0 1 0 0 7l.192-.005A3.504 3.504 0 0 0 38 37.5l-.005-.192A3.5 3.5 0 0 0 34.5 34z" fill="#FA6E1E"/></g></svg>