<svg width="48" height="48" viewBox="0 0 48 48" xmlns="http://www.w3.org/2000/svg"><title>编组 54</title><g fill="none" fill-rule="evenodd"><path d="M30 7h8a4 4 0 0 1 4 4v27a4 4 0 0 1-4 4H11a4 4 0 0 1-4-4V11a4 4 0 0 1 4-4h7" stroke="#168BFF" stroke-width="2.6" stroke-linecap="round" stroke-linejoin="round"/><path d="M18 26.115v2.363c0 .918.197 1.115 1.115 1.115h2.362c.918 0 1.114-.197 1.114-1.115v-2.429C22.525 25.197 22.33 25 21.477 25h-2.362c-.92 0-1.115.196-1.115 1.115zm8.956 3.476h2.36c.919 0 1.115-.197 1.115-1.115v-2.427C30.366 25.197 30.17 25 29.317 25h-2.361c-.919 0-1.115.197-1.115 1.115v2.363c0 .916.196 1.113 1.115 1.113zm-5.48 3.25h-2.361c-.918 0-1.115.196-1.115 1.114v2.363c0 .919.197 1.115 1.115 1.115h2.361c.918 0 1.115-.196 1.115-1.115V33.89c-.066-.852-.262-1.049-1.115-1.049zm5.48 4.59h2.36c.919 0 1.115-.196 1.115-1.115V33.89c-.065-.852-.262-1.049-1.114-1.049h-2.361c-.919 0-1.115.197-1.115 1.115v2.363c0 .917.196 1.113 1.115 1.113z" fill="#168BFF" fill-rule="nonzero"/><path d="M23.282 14.271h2.268v1.162h-2.268zm0-2.271h2.268v1.162h-2.268zm2.268 5.692v-1.16h-2.268v1.16h-2.025a1.093 1.093 0 0 0 .004 1.412l2.527 2.839a.826.826 0 0 0 1.264 0l2.527-2.839c.347-.39.347-1.02.003-1.412H25.55z" fill="#FF9458" fill-rule="nonzero"/></g></svg>