<svg width="48" height="48" viewBox="0 0 48 48" xmlns="http://www.w3.org/2000/svg"><title>编组 54备份 2</title><g fill="none" fill-rule="evenodd"><path d="M18 6h-8a4 4 0 0 0-4 4v27a4 4 0 0 0 4 4h27a4 4 0 0 0 4-4V10a4 4 0 0 0-4-4h-7" stroke="#168BFF" stroke-width="2.6" stroke-linecap="round" stroke-linejoin="round"/><path d="M30 34.885v-2.363c0-.918-.197-1.115-1.115-1.115h-2.362c-.918 0-1.114.197-1.114 1.115v2.429c.066.852.262 1.049 1.114 1.049h2.362c.92 0 1.115-.196 1.115-1.115zm-8.956-3.476h-2.36c-.919 0-1.115.197-1.115 1.115v2.427c.065.852.262 1.049 1.114 1.049h2.361c.919 0 1.115-.197 1.115-1.115v-2.363c0-.916-.196-1.113-1.115-1.113zm5.48-3.25h2.361c.918 0 1.115-.196 1.115-1.114v-2.363c0-.919-.197-1.115-1.115-1.115h-2.361c-.918 0-1.115.196-1.115 1.115v2.429c.066.852.262 1.049 1.115 1.049zm-5.48-4.59h-2.36c-.919 0-1.115.196-1.115 1.115v2.427c.065.852.262 1.049 1.114 1.049h2.361c.919 0 1.115-.197 1.115-1.115v-2.363c0-.917-.196-1.113-1.115-1.113z" fill="#168BFF" fill-rule="nonzero"/><path fill="#FF9458" fill-rule="nonzero" d="M24.922 18.496h-2.268v-1.162h2.268zm0 2.271h-2.268v-1.162h2.268zM22.45 14.84V16h2.268v-1.16h2.025a1.093 1.093 0 0 0-.004-1.413l-2.527-2.838a.826.826 0 0 0-1.264 0l-2.527 2.838a1.093 1.093 0 0 0-.003 1.413h2.032z"/></g></svg>