<svg width="48" height="48" viewBox="0 0 48 48" xmlns="http://www.w3.org/2000/svg"><title>编组 87</title><g fill="none"><path d="M29.228 37.586v4.236h-1.669a.576.576 0 0 0-.559.588.576.576 0 0 0 .56.59h11.88a.576.576 0 0 0 .56-.59.576.576 0 0 0-.56-.588h-1.49v-4.236C37.95 35.054 36 33 33.59 33s-4.362 2.054-4.362 4.586zM33.876 35l-.375 2.573H35L33.126 41l.375-2.571H32L33.877 35h-.001zm-6.45-2l-.112.02a.442.442 0 0 0-.257.25c-.117.258-.048.583.157.738l1.358.992.428-.935-1.358-.992-.105-.055a.348.348 0 0 0-.223 0l.112-.018zm12.26.019a.357.357 0 0 0-.328.052L38 34.064l.428.936 1.358-.989c.206-.155.275-.482.156-.74v-.008a.441.441 0 0 0-.257-.248v.004zM37.452 31l-.141.016a.52.52 0 0 0-.322.198L36 32.57l.935.429.992-1.358c.15-.205.062-.464-.2-.586a.694.694 0 0 0-.415-.04l.141-.016zm-6.771.014a.677.677 0 0 0-.41.042c-.26.122-.349.38-.2.585L31.065 33l.936-.427-.992-1.36a.528.528 0 0 0-.324-.199h-.002zM33.5 30c-.27-.005-.495.19-.501.437V32h1v-1.561c0-.243-.224-.437-.5-.437V30z" fill="#FC6E00"/><path d="M24.21 41.33H11.64a1.5 1.5 0 0 1-1.5-1.501V17.055h6.367a3.726 3.726 0 0 0 3.722-3.722V8.139h16.437c.828 0 1.502.674 1.502 1.502v15.726a1.07 1.07 0 0 0 2.14 0V9.641A3.645 3.645 0 0 0 36.665 6H19.14a1.09 1.09 0 0 0-.213.025l-.004.002a1 1 0 0 0-.212.072h-.002a.852.852 0 0 0-.067.035h-.002l-.06.036-.008.006-.058.04-.007.006a1.072 1.072 0 0 0-.049.04l-.007.006-10.09 8.916a.988.988 0 0 0-.11.114l-.005.005a1.067 1.067 0 0 0-.24.58l-.002.01a1.359 1.359 0 0 0-.004.08V39.83a3.645 3.645 0 0 0 3.64 3.641h12.57a1.07 1.07 0 1 0 0-2.14zM18.09 9.443v3.89c0 .874-.71 1.584-1.583 1.584h-4.612l6.195-5.474zm6.064 26.45h-10.81a1.07 1.07 0 1 0 0 2.14h10.81a1.07 1.07 0 1 0 0-2.14zm-1.013-4.995h-9.798a1.07 1.07 0 1 0 0 2.14h9.798a1.07 1.07 0 1 0 0-2.14zm3.498-4.995H13.343a1.07 1.07 0 0 0 0 2.14H26.64a1.07 1.07 0 1 0 0-2.14zm9.509-3.926c0-.59-.48-1.07-1.07-1.07H13.343a1.07 1.07 0 0 0 0 2.14h21.735a1.07 1.07 0 0 0 1.07-1.07zm-1.07-6.064h-9.67a1.07 1.07 0 0 0 0 2.14h9.67a1.07 1.07 0 1 0 0-2.14zm0-4.995h-9.67a1.07 1.07 0 0 0 0 2.139h9.67a1.07 1.07 0 1 0 0-2.14z" fill="#168BFF"/></g></svg>