<svg xmlns="http://www.w3.org/2000/svg" fill="none" width="21.75" height="21.75" viewBox="0 0 21.75 21.75"><g style="mix-blend-mode:passthrough"><path d="M20.25 2.438q0-.389-.275-.663-.274-.275-.663-.275H2.438q-.388 0-.662.275-.275.274-.275.663v16.875q0 .388.275.662.274.275.663.275h16.875q.388 0 .662-.275.275-.274.275-.663V2.438zm1.5 0v16.875q0 1.01-.714 1.723-.714.714-1.724.714H2.438q-1.01 0-1.723-.714Q0 20.322 0 19.312V2.438Q0 1.427.714.714 1.428 0 2.438 0h16.875q1.01 0 1.723.714.714.714.714 1.724z" fill="#1989FA"/><path d="M15.938 9.938H5.812q-.073 0-.146-.015-.072-.014-.14-.043-.069-.028-.13-.069-.062-.04-.114-.093-.052-.052-.093-.114-.041-.061-.07-.13-.028-.068-.042-.14-.014-.073-.014-.146 0-.074.014-.147.014-.072.043-.14.028-.069.069-.13.04-.062.093-.114.052-.052.114-.093.061-.041.13-.07.068-.028.14-.042.073-.014.146-.014h10.125q.074 0 .147.014.072.014.14.043.069.028.13.069.062.04.114.093.052.052.093.114.041.061.07.13.028.068.042.14.015.073.015.146 0 .074-.015.147-.014.072-.043.14-.028.069-.069.13-.04.062-.093.114-.052.052-.114.093-.061.041-.13.07-.068.028-.14.042-.073.014-.146.014zm.75-.75q0 .073-.015.146-.014.072-.043.14-.028.069-.069.13-.04.062-.093.114-.052.052-.114.093-.061.041-.13.07-.068.028-.14.042-.073.014-.146.014-.074 0-.147-.014-.072-.014-.14-.043-.069-.028-.13-.069-.062-.04-.114-.093-.052-.052-.093-.114-.041-.061-.07-.13-.028-.068-.042-.14-.014-.073-.014-.146 0-.074.014-.147.014-.072.043-.14.028-.069.069-.13.04-.062.093-.114.052-.052.114-.093.061-.041.13-.07.068-.028.14-.042.073-.014.146-.014.074 0 .147.014.072.014.14.043.069.028.13.069.062.04.114.093.052.052.093.114.041.061.07.13.028.068.042.14.015.073.015.146zm-10.125 0q0 .073-.015.146-.014.072-.043.14-.028.069-.069.13-.04.062-.093.114-.052.052-.114.093-.061.041-.13.07-.068.028-.14.042-.073.014-.146.014-.074 0-.147-.014-.072-.014-.14-.043-.069-.028-.13-.069-.062-.04-.114-.093-.052-.052-.093-.114-.041-.061-.07-.13-.028-.068-.042-.14-.014-.073-.014-.146 0-.074.014-.147.014-.072.043-.14.028-.069.069-.13.04-.062.093-.114.052-.052.114-.093.061-.041.13-.07.068-.028.14-.042.073-.014.146-.014.074 0 .147.014.072.014.14.043.069.028.13.069.062.04.114.093.052.052.093.114.041.061.07.13.028.068.042.14.014.073.014.146z" fill="#FF5000"/><path d="M15.938 13.313H5.812q-.073 0-.146-.015-.072-.014-.14-.043-.069-.028-.13-.069-.062-.04-.114-.093-.052-.052-.093-.114-.041-.061-.07-.13-.028-.068-.042-.14-.014-.073-.014-.146 0-.074.014-.147.014-.072.043-.14.028-.069.069-.13.04-.062.093-.114.052-.052.114-.093.061-.041.13-.07.068-.028.14-.042.073-.014.146-.014h10.125q.074 0 .147.014.072.014.14.043.069.028.13.069.062.04.114.093.052.052.093.114.041.061.07.13.028.068.042.14.015.073.015.146 0 .074-.015.147-.014.072-.043.14-.028.069-.069.13-.04.062-.093.114-.052.052-.114.093-.061.041-.13.07-.068.028-.14.042-.073.014-.146.014zm.75-.75q0 .073-.015.146-.014.072-.043.14-.028.069-.069.13-.04.062-.093.114-.052.052-.114.093-.061.041-.13.07-.068.028-.14.042-.073.014-.146.014-.074 0-.147-.014-.072-.014-.14-.043-.069-.028-.13-.069-.062-.04-.114-.093-.052-.052-.093-.114-.041-.061-.07-.13-.028-.068-.042-.14-.014-.073-.014-.146 0-.074.014-.147.014-.072.043-.14.028-.069.069-.13.04-.062.093-.114.052-.052.114-.093.061-.041.13-.07.068-.028.14-.042.073-.014.146-.014.074 0 .147.014.072.014.14.043.069.028.13.069.062.04.114.093.052.052.093.114.041.061.07.13.028.068.042.14.015.073.015.146zm-10.125 0q0 .073-.015.146-.014.072-.043.14-.028.069-.069.13-.04.062-.093.114-.052.052-.114.093-.061.041-.13.07-.068.028-.14.042-.073.014-.146.014-.074 0-.147-.014-.072-.014-.14-.043-.069-.028-.13-.069-.062-.04-.114-.093-.052-.052-.093-.114-.041-.061-.07-.13-.028-.068-.042-.14-.014-.073-.014-.146 0-.074.014-.147.014-.072.043-.14.028-.069.069-.13.04-.062.093-.114.052-.052.114-.093.061-.041.13-.07.068-.028.14-.042.073-.014.146-.014.074 0 .147.014.072.014.14.043.069.028.13.069.062.04.114.093.052.052.093.114.041.061.07.13.028.068.042.14.014.073.014.146z" fill="#1989FA"/><path d="M12.53 4.72l3.938 3.937q.052.052.093.114.041.061.07.13.028.068.042.14.015.073.015.147 0 .073-.015.146-.014.072-.043.14-.028.069-.069.13-.04.062-.093.114-.052.052-.114.093-.061.041-.13.07-.068.028-.14.042-.073.015-.146.015-.074 0-.147-.015-.072-.014-.14-.043-.069-.028-.13-.069-.062-.04-.114-.093L11.47 5.78q-.053-.052-.094-.113-.04-.062-.069-.13-.028-.068-.043-.14-.014-.073-.014-.147t.014-.146q.015-.073.043-.141.028-.068.07-.13.04-.061.093-.113.052-.053.113-.094.062-.04.13-.069.068-.028.14-.043.073-.014.147-.014t.146.014q.073.015.141.043.068.028.13.07.061.04.113.093zm.22.53q0 .074-.014.146-.015.073-.043.141-.028.068-.07.13-.04.061-.093.113-.052.053-.113.094-.062.04-.13.069-.068.028-.14.043Q12.073 6 12 6t-.146-.014q-.073-.015-.141-.043-.068-.028-.13-.07-.061-.04-.113-.093-.053-.052-.094-.113-.04-.062-.069-.13-.028-.068-.043-.14-.014-.073-.014-.147t.014-.146q.015-.073.043-.141.028-.068.07-.13.04-.061.093-.113.052-.053.113-.094.062-.04.13-.069.068-.028.14-.043.073-.014.147-.014t.146.014q.073.015.141.043.068.028.13.07.061.04.113.093.053.052.094.113.04.062.069.13.028.068.043.14.014.073.014.147zm3.938 3.938q0 .073-.015.146-.014.072-.043.14-.028.069-.069.13-.04.062-.093.114-.052.052-.114.093-.061.041-.13.07-.068.028-.14.042-.073.015-.146.015-.074 0-.147-.015-.072-.014-.14-.043-.069-.028-.13-.069-.062-.04-.114-.093-.052-.052-.093-.114-.041-.061-.07-.13-.028-.068-.042-.14-.014-.073-.014-.146 0-.074.014-.147.014-.072.043-.14.028-.069.069-.13.04-.062.093-.114.052-.052.114-.093.061-.041.13-.07.068-.028.14-.042.073-.014.146-.014.074 0 .147.014.072.014.14.043.069.028.13.069.062.041.114.093.052.052.093.114.041.061.07.13.028.068.042.14.015.073.015.147z" fill="#FF5000"/><path d="M6.343 12.032l3.937 3.938q.053.052.094.113.04.062.069.13.028.068.043.14.014.073.014.147t-.014.146q-.015.073-.043.141-.028.068-.07.13-.04.061-.093.113-.052.053-.113.094-.062.04-.13.069-.068.028-.14.043-.073.014-.147.014t-.146-.014q-.073-.015-.141-.043-.068-.028-.13-.07-.061-.04-.113-.093l-3.938-3.937q-.052-.052-.093-.114-.041-.061-.07-.13-.028-.068-.042-.14-.014-.073-.014-.146 0-.074.014-.147.014-.072.043-.14.028-.069.069-.13.04-.062.093-.114.052-.052.114-.093.061-.041.13-.07.068-.028.14-.042.073-.014.146-.014.074 0 .147.014.072.014.14.043.069.028.13.069.062.04.114.093zm.22.53q0 .074-.015.147-.014.072-.043.14-.028.069-.069.13-.04.062-.093.114-.052.052-.114.093-.061.041-.13.07-.068.028-.14.042-.073.014-.146.014-.074 0-.147-.014-.072-.014-.14-.043-.069-.028-.13-.069-.062-.04-.114-.093-.052-.052-.093-.114-.041-.061-.07-.13-.028-.068-.042-.14-.014-.073-.014-.146 0-.074.014-.147.014-.072.043-.14.028-.069.069-.13.04-.062.093-.114.052-.052.114-.093.061-.041.13-.07.068-.028.14-.042.073-.014.146-.014.074 0 .147.014.072.014.14.043.069.028.13.069.062.04.114.093.052.052.093.114.041.061.07.13.028.068.042.14.014.073.014.146zM10.5 16.5q0 .074-.014.146-.015.073-.043.141-.028.068-.07.13-.04.061-.093.113-.052.053-.113.094-.062.04-.13.069-.068.028-.14.043-.073.014-.147.014t-.146-.014q-.073-.015-.141-.043-.068-.028-.13-.07-.061-.04-.113-.093-.053-.052-.094-.113-.04-.062-.069-.13-.028-.068-.043-.14Q9 16.573 9 16.5t.014-.146q.015-.073.043-.141.028-.068.07-.13.04-.061.093-.113.052-.053.113-.094.062-.04.13-.069.068-.028.14-.043.073-.014.147-.014t.146.014q.073.015.141.043.068.028.13.07.061.04.113.093.053.052.094.113.04.062.069.13.028.068.043.14.014.073.014.147z" fill="#1989FA"/></g></svg>