<svg width="48" height="48" viewBox="0 0 48 48" xmlns="http://www.w3.org/2000/svg"><title>编组 8</title><g fill="none"><path d="M9.867 10.3c0-1.833 1.467-3.3 3.3-3.3h23.32c1.833 0 3.373 1.467 3.593 3.227 0 0 .367 4.18.367 5.573v19.653c0 1.834-1.467 3.227-3.3 3.227h-23.98a3.286 3.286 0 0 1-3.3-3.3V10.3z" fill="#FFD6C2"/><path d="M9.72 29.733h27.72l5.06 6.6c1.834 2.347.88 4.327-2.126 4.327H7.08c-3.006 0-3.96-1.98-2.2-4.327l4.84-6.6z" fill="#FFD6C2"/><path d="M11.7 7h24.054c1.833 0 3.3 1.467 3.3 3.3v23.98c0 1.833-1.467 3.3-3.3 3.3H11.7a3.286 3.286 0 0 1-3.3-3.3V10.3C8.4 8.467 9.867 7 11.7 7z" fill="#FB560A"/><path d="M20.574 28.34h2.86v-1.393h-2.86c-.807 0-1.174-.514-1.174-1.027 0-.513.367-.807 1.174-.807h2.053s-1.54-2.053-2.053-2.933c-.514-1.027 1.613-1.467 2.2-.587l1.76 2.86s.953-2.126 1.613-3.153c.513-.953 2.64.22 2.053 1.247-.586.88-1.686 2.566-1.686 2.566h2.053c.807 0 1.027.294 1.027.807 0 .513-.294 1.027-1.027 1.027h-2.86v1.393h2.86c.807 0 1.173.293 1.173.807 0 .513-.366.88-1.173.88h-2.86v.146c0 1.174-.367 1.76-1.1 1.76H23.8c-.44 0-.293-.953-.293-1.76v-.146h-2.86c-.807 0-1.173-.367-1.173-.88-.074-.587.293-.807 1.1-.807z" fill="#FFD3D7"/><path d="M19.84 28.34h2.86v-1.393h-2.86c-.806 0-1.173-.514-1.173-1.027 0-.513.367-.807 1.173-.807h2.054s-1.027-1.686-1.54-2.493c-.514-1.027 1.173-1.907 1.686-1.027l1.76 2.86s1.32-2.053 1.907-3.153c.513-.953 2.273.147 1.687 1.247-.587.88-1.687 2.566-1.687 2.566h2.053c.807 0 1.174.294 1.174.807 0 .513-.367 1.027-1.174 1.027H24.9v1.393h2.86c.807 0 1.174.293 1.174.807 0 .513-.367.88-1.174.88H24.9v.146c0 1.174-.366 1.76-1.1 1.76-.733 0-1.1-.586-1.1-1.76v-.146h-2.86c-.806 0-1.173-.367-1.173-.88 0-.587.367-.807 1.173-.807zM8.4 10.3C8.4 8.467 9.867 7 11.7 7h24.054c1.833 0 3.3 1.467 3.3 3.3v2.2c0 3.007-2.494 5.5-5.5 5.5H13.9c-3.006 0-5.5-2.493-5.5-5.5v-2.2z" fill="#FFF"/><path d="M8.4 10.3C8.4 8.467 9.867 7 11.7 7h24.054c1.833 0 3.3 1.467 3.3 3.3v1.32a4.6 4.6 0 0 1-4.62 4.62H13.02a4.6 4.6 0 0 1-4.62-4.62V10.3z" fill="#FB560A"/></g></svg>