<svg width="48" height="48" viewBox="0 0 48 48" xmlns="http://www.w3.org/2000/svg"><title>编组 18</title><g fill="none"><path d="M11.38 4.276a.298.298 0 0 1 .282.028c.089.059.14.16.14.266v7.98h7.111V4.568a.32.32 0 0 1 .088-.223c2.157.74 3.695 2.057 4.767 3.671a10.177 10.177 0 0 1 1.696 5.648c0 3.676-1.912 7.024-5.096 8.87V38.68a5.058 5.058 0 0 1-1.535 3.65 4.941 4.941 0 0 1-3.451 1.419 5.237 5.237 0 0 1-3.567-1.575 5.16 5.16 0 0 1-1.469-3.606V22.536c-3.184-1.845-5.096-5.194-5.096-8.87 0-2.047.602-3.993 1.67-5.628a10.128 10.128 0 0 1 4.46-3.762z" fill="#FFF" stroke="#168BFF" stroke-width="2.5"/><path d="M43.53 29.782c.007.125.007.25.007.374 0 5.643-4.534 10.22-10.125 10.22s-10.126-4.577-10.126-10.22c0-5.643 4.535-10.22 10.126-10.22.123 0 .247 0 .362.008-4.033.18-7.642 3.013-8.652 7.177-1.227 5.059 1.835 10.165 6.848 11.402 5.012 1.238 10.071-1.852 11.297-6.911a8.81 8.81 0 0 0 .263-1.83z" fill="#FFC500"/><path d="M43.53 29.782a9.263 9.263 0 0 1-.263 1.822c-1.226 5.059-6.285 8.149-11.297 6.911-5.013-1.237-8.075-6.343-6.848-11.402 1.01-4.156 4.611-6.99 8.652-7.176 5.306.194 9.57 4.498 9.756 9.845z" fill="#FFEB00"/><path d="M33.412 40.842c-5.838 0-10.588-4.794-10.588-10.686s4.75-10.686 10.588-10.686a10.515 10.515 0 0 1 7.488 3.129 10.671 10.671 0 0 1 3.1 7.558c0 5.891-4.75 10.685-10.588 10.685zm0-20.438c-5.33 0-9.663 4.374-9.663 9.752 0 5.378 4.334 9.752 9.663 9.752 5.329 0 9.663-4.374 9.663-9.752 0-.117 0-.241-.008-.35a9.753 9.753 0 0 0-2.823-6.546 9.563 9.563 0 0 0-6.485-2.849c-.1-.007-.216-.007-.347-.007z" fill="#91000A"/><path d="M40.723 27.183a.454.454 0 0 1-.417-.273 7.802 7.802 0 0 0-2.082-2.7l-.324-.257a.467.467 0 0 1-.1-.654.457.457 0 0 1 .648-.101c.123.093.246.187.362.288a8.69 8.69 0 0 1 2.337 3.028.471.471 0 0 1-.424.669zm-4.281-4.102a.474.474 0 0 1-.177-.031c-.077-.031-.162-.062-.247-.093a.472.472 0 0 1-.277-.6.465.465 0 0 1 .594-.28c.092.031.185.07.27.109a.467.467 0 0 1 .254.607.434.434 0 0 1-.417.288z" fill="#FFF"/><path d="M31.052 25.976h-1.25c0 .697.56 1.261 1.25 1.261s1.25-.564 1.25-1.26c0-.697-.56-1.261-1.25-1.261s-1.25.564-1.25 1.26h1.25zm4.92 0h-1.25c0 .697.56 1.261 1.25 1.261s1.25-.564 1.25-1.26c0-.697-.56-1.261-1.25-1.261s-1.25.564-1.25 1.26h1.25zm1.465 3.784h-8.02c-.594 0-1.08-.491-1.08-1.09 0-.6.486-1.09 1.08-1.09h8.013c.593 0 1.08.49 1.08 1.09 0 .607-.479 1.09-1.073 1.09zm-.594 3.478h-6.84c-.594 0-1.08-.49-1.08-1.09 0-.599.486-1.09 1.08-1.09h6.84c.594 0 1.08.491 1.08 1.09 0 .608-.478 1.09-1.08 1.09z" fill="#FF2B3F"/><path d="M34.5 28.763v6.608c0 .6-.487 1.09-1.08 1.09-.594 0-1.08-.49-1.08-1.09v-6.608c0-.6.486-1.09 1.08-1.09.601 0 1.08.49 1.08 1.09z" fill="#FF2B3F"/></g></svg>