<svg width="48" height="48" viewBox="0 0 48 48" xmlns="http://www.w3.org/2000/svg"><title>编组 85</title><g fill="none"><path d="M24.276 2.147L43.8 13.536a.5.5 0 0 1 .248.432V26.53a.5.5 0 0 1-.5.5h-.669a.5.5 0 0 1-.5-.5V15.574a.5.5 0 0 0-.758-.428L25.1 25.122a.5.5 0 0 0-.242.428v19.06a.5.5 0 0 1-.248.433l-.334.195a.5.5 0 0 1-.504 0L5.69 34.69a.014.014 0 0 0-.021.012.014.014 0 0 1-.022.012l-1.408-.863A.5.5 0 0 1 4 33.425V13.968a.5.5 0 0 1 .248-.432L23.772 2.147a.5.5 0 0 1 .504 0zM5.742 15.335a.5.5 0 0 0-.073.261v16.347a.5.5 0 0 0 .713.452l13.591-6.418a.5.5 0 0 1 .714.452v.82a.5.5 0 0 1-.292.455l-12.208 5.6a.5.5 0 0 0-.043.886l14.294 8.337a.5.5 0 0 0 .752-.432V25.718a.5.5 0 0 0-.24-.426L6.43 15.17a.5.5 0 0 0-.688.165zm18.03-11.256L7.975 13.293a.5.5 0 0 0-.01.858l15.661 9.593a.5.5 0 0 0 .52.002l15.912-9.607a.5.5 0 0 0-.007-.86l-15.775-9.2a.5.5 0 0 0-.504 0z" stroke="#168BFF" fill="#168BFF"/><path d="M31.485 30.217l8.18 9.406a3.337 3.337 0 1 1-1.3 1.05l-2.303-2.647v-.002l-2.687 2.644a3.337 3.337 0 1 1-1.31-1.051l2.565-2.524a.5.5 0 0 0 .027-.685l-4.431-5.096a.5.5 0 0 1-.014-.64l.063-.065.505-.44a.5.5 0 0 1 .705.05zM40.457 41.1l-.88.764a1.669 1.669 0 1 0 .88-.764zm-9.759-.107a1.669 1.669 0 0 0-.143 3.331l.143.006a1.669 1.669 0 0 0 .144-3.33l-.144-.007z" fill="#FF5000"/><path d="M38.29 35.809l-.815-.839a.5.5 0 0 1 .01-.706l4.194-4.077a.5.5 0 0 1 .707.01l.466.48a.5.5 0 0 1-.01.706l-4.552 4.423v.002z" fill="#FF5000"/></g></svg>