<svg width="48" height="48" viewBox="0 0 48 48" xmlns="http://www.w3.org/2000/svg"><title>库存</title><g fill="none"><path d="M42.704 13.468L39.285 6.89C38.441 5.27 36.348 4 34.522 4H13.505c-1.824 0-3.924 1.262-4.776 2.871l-3.415 6.443C4.576 14.708 4 17.032 4 18.607V40.25C4 42.318 5.68 44 7.75 44h32.5A3.754 3.754 0 0 0 44 40.25V18.76c0-1.572-.569-3.898-1.296-5.292zM7.526 14.483l3.413-6.44c.427-.806 1.65-1.543 2.566-1.543h21.017c.91 0 2.124.737 2.546 1.545l3.419 6.575c.16.313.312.713.451 1.143H7.025c.151-.481.318-.935.5-1.28zM41.5 40.25c0 .688-.56 1.25-1.25 1.25H7.75a1.25 1.25 0 0 1-1.25-1.25V18.607c0-.1.02-.232.03-.344h34.928c.015.166.042.351.042.498V40.25z" fill="#168BFF"/><path d="M21.586 32.898h1.56V36h-1.56v-3.102zm2.394 0h1.583V36H23.98v-3.102zm3.208-7.978h-6.03v-2.3c0-.19-.224-.285-.363-.17l-4.715 3.863a.218.218 0 0 0 0 .338l4.704 3.862c.15.116.363.02.363-.17v-2.32h6.04c1.358 0 2.47 1.086 2.47 2.437 0 1.34-1.101 2.438-2.47 2.438h-.801V36h.802c3.09 0 5.612-2.48 5.612-5.54s-2.512-5.54-5.612-5.54zm-10.456 7.978h1.615V36h-1.615v-3.102zm2.438 0h1.582V36H19.17v-3.102z" fill="#FA6E1E"/></g></svg>