<svg width="48" height="48" viewBox="0 0 48 48" xmlns="http://www.w3.org/2000/svg"><title>编组 58</title><g fill="none"><path d="M15.359 31.028c0-8.288 6.732-14.995 14.998-14.97 8.29 0 14.974 6.73 14.95 15.018C45.308 39.316 38.6 46 30.31 46c-8.266 0-14.951-6.707-14.951-14.972zm2.994-.047c-.023 6.587 5.344 11.977 11.908 12.001 6.612.024 12.028-5.318 12.028-11.881.023-6.635-5.32-12.05-11.956-12.05-6.565-.024-11.98 5.366-11.98 11.93zm9.632-20.9c2.497 0 2.148 3.043 0 3.043H9.225c-2.347 0-2.248-3.042 0-3.042h18.76zM9.057 20.659c-.86 0-1.556-.682-1.556-1.523 0-.841.697-1.523 1.556-1.523h9.327c.86 0 1.556.682 1.556 1.523 0 .84-.697 1.523-1.556 1.523H9.057zM3 7.9C3 2.36 6.068 2 8.99 2h23.98c4.623 0 6.036 1.59 6.036 6.02v3.011c0 2.385-3.018 2.095-3.018 0V8.045c0-2.24-.719-3.01-3.042-3.01H8.99c-2.492 0-2.995.337-2.995 3.01v30.128c0 1.661.91 3.01 2.995 3.01h5.988c1.82 0 1.965 3.01 0 3.01-1.964 0-3.45.025-7.115 0-2.155 0-3.952-1.3-4.599-3.299A6.25 6.25 0 0 1 3 39.136V7.9z" fill="#168BFF"/><path d="M32.774 35.083c-.784 0-1.418.635-1.418 1.418.012.773.637 1.4 1.417 1.417A1.415 1.415 0 0 0 34.19 36.5c0-.782-.635-1.417-1.418-1.417zm-6.652 0c-.783 0-1.417.635-1.417 1.418.012.773.637 1.4 1.417 1.417a1.416 1.416 0 0 0 1.418-1.417c0-.783-.635-1.418-1.418-1.418zm13.784-9.736c-.006-.203-.151-.555-.301-.693a.769.769 0 0 0-.55-.204H35.9a.767.767 0 0 0-.653.509l-.91 2.519H23.515a.706.706 0 0 0-.71.735v.226c0 .39.318.708.71.708h10.284l-.37 1.018h-9.12a.737.737 0 0 0-.738.736v.226c.014.395.34.707.738.708h8.523l-.368 1.047H25.56a.766.766 0 0 0-.767.735v.227a.74.74 0 0 0 .767.707h7.528a.71.71 0 0 0 .738-.48l2.841-7.867h2.443a.766.766 0 0 0 .796-.707v-.15z" fill="#FF5000"/></g></svg>