<svg width="229" height="154" viewBox="0 0 229 154" xmlns="http://www.w3.org/2000/svg"><title>金币大</title><g fill="none"><path d="M130.278 65.225c0 2.972-1.146 5.842-3.282 8.506-8.543 10.762-32.92 18.577-61.649 18.577-28.727 0-53.106-7.79-61.649-18.577C1.563 71.067.417 68.197.417 65.225c0-14.964 29.092-27.084 64.93-27.084 35.838 0 64.93 12.12 64.93 27.084z" fill="#FFFB59"/><path d="M107.361 64.196c0 1.955-.758 3.808-2.171 5.56-5.676 7.058-21.842 12.135-40.884 12.135-19.043 0-35.209-5.077-40.885-12.135-1.412-1.752-2.171-3.63-2.171-5.56 0-9.775 19.278-17.721 43.056-17.721 23.777 0 43.055 7.946 43.055 17.72z" fill="#FFCD59"/><path d="M103.96 71.475c.445-.439.864-.902 1.23-1.366 1.413-1.779 2.171-3.686 2.171-5.645 0-9.922-19.278-17.99-43.055-17.99-23.49 0-42.611 7.861-43.056 17.63C27.816 57.66 43.092 53.15 60.905 53.15c23.777 0 43.056 8.041 43.056 17.99a.725.725 0 0 1 0 .335z" fill="#FF823C"/><path fill="#FFFB59" d="M67.07 74.168L54.2 77.725l2.46-7.546-10.41-5.335 14.398-1.093 6.422-6.86 6.448 6.86 14.399 1.093-10.436 5.335 2.46 7.546z"/><path d="M130.278 65.92v16.894c0 14.838-29.093 26.855-64.93 26.855C29.508 109.67.416 97.626.416 82.814V65.92c0 2.947 1.146 5.793 3.281 8.435 8.543 10.67 32.921 18.42 61.65 18.42 28.727 0 53.105-7.724 61.648-18.42 2.136-2.642 3.282-5.488 3.282-8.435z" fill="#FF9A59"/><path d="M228.889 58.975c0 2.98-1.137 5.83-3.23 8.522-8.4 10.77-32.384 18.561-60.659 18.561s-52.233-7.79-60.658-18.561c-2.12-2.667-3.23-5.542-3.23-8.522 0-14.954 28.61-27.084 63.888-27.084s63.889 12.13 63.889 27.084z" fill="#FFFB59"/><path d="M203.889 56.891c0 2.054-.75 4.03-2.119 5.9-5.53 7.452-21.291 12.85-39.895 12.85-18.604 0-34.366-5.398-39.895-12.85-1.395-1.844-2.119-3.846-2.119-5.9 0-10.349 18.81-18.75 42.014-18.75 23.203 0 42.014 8.4 42.014 18.75z" fill="#FFCD59"/><path d="M200.582 63.141c.439-.404.852-.834 1.188-1.24 1.395-1.618 2.119-3.363 2.119-5.184 0-9.106-18.81-16.492-42.014-16.492-22.919 0-41.575 7.209-42.014 16.163 6.408-5.894 21.317-10.042 38.707-10.042 23.203 0 42.013 7.386 42.013 16.492.026.1 0 .202 0 .303z" fill="#FF823C"/><path fill="#FFFB59" d="M164.665 65.847l-12.247 3.544 2.358-7.544-9.915-5.342 13.693-1.101 6.111-6.846 6.112 6.846 13.667 1.1-9.89 5.343 2.334 7.544z"/><path d="M228.889 59.67v16.896c0 14.843-28.61 26.853-63.889 26.853s-63.889-12.036-63.889-26.853V59.669c0 2.964 1.137 5.797 3.23 8.449 8.4 10.684 32.384 18.404 60.659 18.404s52.233-7.72 60.658-18.404c2.094-2.652 3.23-5.485 3.23-8.449z" fill="#FF9A59"/><path d="M151.111 38.141c0 2.972-1.146 5.842-3.282 8.507-8.542 10.787-32.92 18.577-61.648 18.577s-53.106-7.79-61.65-18.577c-2.135-2.69-3.281-5.535-3.281-8.507 0-14.964 29.092-27.083 64.93-27.083 35.839 0 64.931 12.145 64.931 27.083z" fill="#FFFB59"/><path d="M128.194 37.1c0 1.956-.758 3.81-2.171 5.564-5.678 7.063-21.849 12.144-40.897 12.144-19.049 0-35.219-5.081-40.87-12.119-1.414-1.753-2.173-3.633-2.173-5.564 0-9.781 19.284-17.734 43.069-17.734 23.784 0 43.042 7.927 43.042 17.709z" fill="#FFCD59"/><path d="M124.794 44.391a14.91 14.91 0 0 0 1.23-1.366c1.412-1.778 2.17-3.685 2.17-5.644 0-9.923-19.278-17.99-43.055-17.99-23.49 0-42.611 7.861-43.056 17.63 6.566-6.444 21.842-10.954 39.655-10.954 23.778 0 43.056 8.04 43.056 17.99v.334z" fill="#FF823C"/><path fill="#FFFB59" d="M88.611 47.084l-12.878 3.557 2.461-7.52-10.416-5.335 14.381-1.118 6.452-6.86 6.426 6.86 14.407 1.118-10.416 5.335 2.461 7.52z"/><path d="M151.111 38.141v16.896c0 14.837-29.092 26.854-64.93 26.854-35.839 0-64.931-12.017-64.931-26.854V38.14c0 2.947 1.146 5.793 3.282 8.435 8.542 10.671 32.92 18.42 61.649 18.42 28.727 0 53.105-7.724 61.648-18.42 2.136-2.642 3.282-5.488 3.282-8.435z" fill="#FF9A59"/><path d="M169.861 109.669c0 2.972-1.146 5.842-3.282 8.507-8.542 10.761-32.92 18.576-61.648 18.576s-53.106-7.815-61.65-18.576c-2.135-2.69-3.281-5.535-3.281-8.507 0-14.964 29.092-27.083 64.93-27.083 35.839 0 64.931 12.12 64.931 27.083z" fill="#FFFB59"/><path d="M149.028 108.64c0 1.955-.759 3.808-2.171 5.56-5.677 7.058-21.842 12.136-40.885 12.136s-35.208-5.103-40.884-12.136c-1.413-1.752-2.171-3.63-2.171-5.56 0-9.774 19.278-17.72 43.055-17.72 23.778 0 43.056 7.92 43.056 17.72z" fill="#FFCD59"/><path d="M145.627 115.92c.445-.44.863-.903 1.23-1.367 1.412-1.778 2.17-3.685 2.17-5.644 0-9.923-19.277-17.99-43.055-17.99-23.49 0-42.61 7.86-43.055 17.629 6.565-6.443 21.841-10.954 39.655-10.954 23.777 0 43.055 8.042 43.055 17.99a.725.725 0 0 1 0 .335z" fill="#FF823C"/><path fill="#FFFB59" d="M109.432 118.612l-12.87 3.557 2.46-7.546-10.41-5.335 14.397-1.092 6.422-6.86 6.449 6.86 14.398 1.092-10.41 5.335 2.434 7.546z"/><path d="M169.861 109.67v16.894c0 14.838-29.092 26.855-64.93 26.855C69.092 153.42 40 141.402 40 126.564V109.67c0 2.947 1.146 5.793 3.282 8.435 8.542 10.67 32.92 18.42 61.649 18.42 28.727 0 53.08-7.75 61.622-18.42 2.162-2.642 3.308-5.488 3.308-8.435z" fill="#FF9A59"/><path d="M169.861 71.475c0 2.972-1.146 5.842-3.282 8.506-8.542 10.762-32.92 18.577-61.648 18.577s-53.106-7.79-61.65-18.577C41.147 77.291 40 74.447 40 71.475 40 56.51 69.092 44.39 104.93 44.39c35.839 0 64.931 12.12 64.931 27.084z" fill="#FFFB59"/><path d="M149.028 70.446c0 1.955-.759 3.808-2.171 5.56-5.677 7.058-21.842 12.135-40.885 12.135s-35.208-5.103-40.884-12.135c-1.413-1.752-2.171-3.63-2.171-5.56 0-9.775 19.278-17.721 43.055-17.721 23.778 0 43.056 7.92 43.056 17.72z" fill="#FFCD59"/><path d="M145.627 77.725a15.09 15.09 0 0 0 1.23-1.366c1.412-1.779 2.17-3.686 2.17-5.645 0-9.922-19.277-17.99-43.055-17.99-23.49 0-42.61 7.861-43.055 17.63C69.482 63.91 84.758 59.4 102.572 59.4c23.777 0 43.055 8.041 43.055 17.99a.725.725 0 0 1 0 .335z" fill="#FF823C"/><path fill="#FFFB59" d="M109.432 80.418l-12.87 3.557 2.46-7.546-10.41-5.335L103.008 70l6.422-6.86 6.449 6.86 14.398 1.093-10.41 5.335 2.434 7.546z"/><path d="M169.861 72.17v16.894c0 14.838-29.092 26.855-64.93 26.855C69.091 115.92 40 103.902 40 89.064V72.17c0 2.947 1.146 5.793 3.282 8.435 8.542 10.67 32.92 18.42 61.649 18.42 28.727 0 53.105-7.724 61.648-18.42 2.136-2.642 3.282-5.488 3.282-8.435z" fill="#FF9A59"/><path d="M180.278 27.725c0 2.972-1.146 5.842-3.282 8.506-8.543 10.762-32.92 18.577-61.649 18.577-28.727 0-53.106-7.79-61.649-18.577-2.135-2.69-3.281-5.534-3.281-8.506C50.417 12.76 79.509.64 115.347.64c35.838 0 64.93 12.146 64.93 27.084z" fill="#FFFB59"/><path d="M159.444 28.779c0 1.955-.758 3.808-2.17 5.56-5.677 7.058-21.842 12.136-40.885 12.136S81.18 41.372 75.504 34.339c-1.412-1.752-2.17-3.63-2.17-5.56 0-9.774 19.278-17.721 43.055-17.721s43.055 7.946 43.055 17.721z" fill="#FFCD59"/><path d="M156.044 33.975a14.91 14.91 0 0 0 1.23-1.366c1.412-1.779 2.17-3.686 2.17-5.645 0-9.922-19.278-17.99-43.055-17.99-23.49 0-42.611 7.861-43.056 17.63C79.9 20.16 95.175 15.65 112.988 15.65c23.778 0 43.056 8.041 43.056 17.99.026.128 0 .232 0 .335z" fill="#FF823C"/><path fill="#FFFB59" d="M117.778 36.668l-12.879 3.557 2.462-7.52-10.417-5.336 14.408-1.118 6.426-6.86 6.452 6.86 14.381 1.118-10.417 5.335 2.462 7.52z"/><path d="M180.278 27.725V44.62c0 14.837-29.093 26.855-64.93 26.855-35.839 0-64.931-12.018-64.931-26.855V27.725c0 2.947 1.146 5.792 3.281 8.435 8.543 10.67 32.921 18.42 61.65 18.42 28.727 0 53.105-7.724 61.648-18.42 2.136-2.643 3.282-5.488 3.282-8.435z" fill="#FF9A59"/></g></svg>